<?xml version="1.0" encoding="UTF-8"?>
<svg id="Layer_2" data-name="Layer 2" xmlns="http://www.w3.org/2000/svg" viewBox="0 0 1012.85 898.32">
  <defs>
    <style>
      .cls-1 {
        stroke-width: 3.36px;
      }

      .cls-1, .cls-2 {
        fill: #fff;
      }

      .cls-1, .cls-3, .cls-4, .cls-5, .cls-6, .cls-7 {
        stroke-miterlimit: 10;
      }

      .cls-1, .cls-4, .cls-6, .cls-7 {
        stroke: #70543e;
      }

      .cls-3 {
        stroke-width: 1.26px;
      }

      .cls-3, .cls-4, .cls-5, .cls-7 {
        fill: none;
      }

      .cls-3, .cls-5 {
        stroke: #fff;
      }

      .cls-4, .cls-5 {
        stroke-width: 1.12px;
      }

      .cls-8 {
        fill: #4a6741;
      }

      .cls-9, .cls-6 {
        fill: #70543e;
      }

      .cls-6 {
        stroke-width: .56px;
      }

      .cls-7 {
        stroke-width: 11.19px;
      }
    </style>
  </defs>
  <g id="Layer_1-2" data-name="Layer 1">
    <g>
      <circle class="cls-2" cx="506.42" cy="449.16" r="443.56"/>
      <path class="cls-9" d="M757.01,343.97l48.13,45.07,32.36-.27-.28-76.04c-.05-13.62-4.04-26.93-11.48-38.34l-34.04-52.17-38.1-26.48,7.76,27.47-5.27-12.04.03.21-.46-1.07-8.77-19.92-16.04-27.94c-9.88-17.22-25.44-30.46-44.02-37.46l-56.34-21.24,20.62,36.45-30.38-40.26-69.1-39.08h-90.39l-69.1,39.08-30.38,40.26,20.62-36.45-56.34,21.24c-18.57,7-34.14,20.25-44.02,37.46l-16.04,27.94-8.77,19.92-.46,1.07.03-.21-5.27,12.04,7.76-27.47-38.1,26.48-34.04,52.17c-7.44,11.41-11.43,24.72-11.48,38.34l-.28,76.04,32.36.27,48.13-45.07,23.9-40.77,2.38,1.24-25.29,42.04-49.06,42.56,83.1.71c3.03-39.36,16.63-75.76,37.96-106.36,1.27-1.83-.58-4.18-2.65-3.36l-16.58,6.65,13.58-7.36c6.17-3.34,11.86-7.49,16.94-12.32l9.49-9.04.02-.02c23.36-24.53,52.44-43.57,85.1-54.97l-2.31.38-20.22-1.07,29.85-1.71c19.91-6.14,41.06-9.49,62.98-9.56.24-.01.47-.01.71-.01s.47,0,.71.01c.24-.01.47-.01.71-.01s.47,0,.71.01c21.91.07,43.07,3.41,62.98,9.56l29.85,1.71-20.22,1.07-2.31-.38c32.66,11.39,61.74,30.43,85.1,54.97l.02.02,9.49,9.04c5.08,4.84,10.77,8.98,16.94,12.32l13.58,7.36-16.58-6.65c-2.07-.83-3.92,1.53-2.65,3.36,21.33,30.6,34.93,67,37.96,106.36l83.1-.71-49.06-42.56-25.29-42.04,2.38-1.24,23.9,40.77ZM275.22,250.95l-19.39-22.7,23.96,20.16,7.64,34.92-12.22-32.38ZM365.91,136.78l1.29,5.63,26.6,48.59-32.11-49.91,4.22-4.31ZM364.37,210.21l28.72-19.63,1.48,2.15-30.2,17.48ZM618.28,192.73l1.48-2.15,28.72,19.63-30.2-17.48ZM619.04,191l26.6-48.59,1.29-5.63,4.22,4.31-32.11,49.91ZM725.4,283.33l7.64-34.92,23.96-20.16-19.39,22.7-12.22,32.38Z"/>
      <polygon class="cls-9" points="208.47 389.05 207.66 389.75 208.41 389.05 208.47 389.05"/>
      <circle class="cls-7" cx="506.42" cy="449.16" r="443.56"/>
      <circle class="cls-4" cx="506.42" cy="449.16" r="427.23"/>
      <g>
        <path class="cls-6" d="M282.29,740.61l-21.14,29.75-1.37-.97,22.66-31.89,6.42,4.56-2.96,42.67,21.14-29.75,1.37.97-22.66,31.89-6.42-4.56,2.96-42.67Z"/>
        <path class="cls-6" d="M318.36,770.1l.98-7.68,6.74,3.85-5.29,42.04-6.75-3.85,1.84-14.59-11.26-6.43-11.25,9.21-1.46-.83,26.44-21.71ZM316.1,788.13l1.98-15.74-12.12,9.94,10.14,5.8Z"/>
        <path class="cls-6" d="M367.73,786.84c1.15.52,1.94,1.36,2.35,2.53.41,1.17.39,2.34-.06,3.53l-2.7,7.36-1.48-.67c.86-3.37.81-6.28-.18-8.72-.98-2.45-3.01-4.4-6.07-5.86l-15.38,34.14-7.03-3.17,15.38-34.14c-3.12-1.32-5.92-1.54-8.41-.66-2.48.88-4.7,2.77-6.65,5.65l-1.48-.67,3.72-6.9c.59-1.12,1.46-1.92,2.61-2.38,1.15-.46,2.3-.44,3.46.09l21.91,9.87Z"/>
        <path class="cls-6" d="M404.14,799.66l1.59.53-8.21,24.6c-.66,1.98-1.57,3.65-2.73,5.01-1.16,1.36-2.53,2.4-4.1,3.11-1.57.71-3.32,1.08-5.23,1.11-1.92.03-3.95-.32-6.11-1.04-1.52-.51-3.14-1.24-4.86-2.21-1.72-.97-3.25-2.12-4.59-3.47-1.34-1.35-2.32-2.88-2.94-4.6-.62-1.72-.61-3.57.06-5.55l8.97-26.88,7.21,2.41-8.51,25.5c-.13.39-.28.92-.44,1.59-.17.67-.27,1.43-.32,2.28s0,1.73.12,2.63c.13.91.42,1.79.88,2.65.46.86,1.12,1.66,1.97,2.4.85.74,1.97,1.34,3.35,1.79,3.68,1.23,6.92,1.18,9.74-.14,2.82-1.32,4.86-3.89,6.14-7.7l8.02-24.02Z"/>
        <path class="cls-6" d="M425.44,845.03c-.62-.14-1.14-.44-1.57-.91-.43-.46-.73-1-.89-1.61l-4.37-17.46-3.92-.9-4.01,17.49-7.52-1.72,8.74-38.13,13.51,3.1c1.27.29,2.62.66,4.05,1.1,1.43.44,2.7,1.13,3.83,2.05,1.13.93,1.95,2.17,2.47,3.72.52,1.55.49,3.6-.09,6.14-.5,2.18-1.22,3.86-2.16,5.04-.94,1.18-2,2.03-3.19,2.54-1.19.51-2.43.77-3.73.78-1.3,0-2.56-.09-3.77-.29,1,.31,1.86.84,2.59,1.6.72.76,1.2,1.64,1.43,2.65l4.11,16.08-5.5-1.26ZM415.06,822.52l5.99,1.37c1.56.36,2.94-.03,4.14-1.17,1.2-1.14,2.17-3.33,2.91-6.56.37-1.63.57-3.02.58-4.17.01-1.14-.12-2.09-.41-2.85-.29-.75-.71-1.34-1.26-1.75-.56-.41-1.21-.71-1.98-.88l-5.99-1.37-3.98,17.38Z"/>
        <path class="cls-6" d="M465.43,838.71l-1.06,7.75c-.17,1.25-.76,2.26-1.77,3.03s-2.14,1.06-3.39.89l-20.38-2.8,5.32-38.76,20.38,2.8c1.25.17,2.26.76,3.03,1.77.76,1.01,1.06,2.14.89,3.39l-1.06,7.75-1.61-.22c-.08-3.55-.9-6.35-2.46-8.41-1.56-2.06-4.08-3.32-7.55-3.8l-4.15-.57-2.33,17,9.91,1.36-.23,1.66-9.91-1.36-2.3,16.78,4.21.58c3.43.47,6.17-.07,8.21-1.64,2.04-1.56,3.59-4.04,4.66-7.43l1.61.22Z"/>
        <path class="cls-6" d="M473.78,821.51c.65-.25,1.25-.6,1.79-1.06.54-.46.94-.94,1.21-1.45-.96-.11-1.81-.57-2.53-1.38s-1.04-1.8-.94-2.99c.08-1.08.55-1.99,1.39-2.75s1.82-1.09,2.94-1c.78.06,1.45.31,2.02.75.56.44.99.98,1.27,1.64.28.66.41,1.39.39,2.19-.03.8-.24,1.6-.64,2.39-.83,1.54-1.84,2.78-3.04,3.71-1.19.93-2.53,1.53-4.01,1.79l.14-1.84Z"/>
        <path class="cls-6" d="M491.55,822.05c.2,1.09.76,2.04,1.67,2.86.91.82,2.01,1.59,3.28,2.31,1.27.72,2.63,1.44,4.09,2.16,1.46.72,2.85,1.55,4.17,2.49,1.32.94,2.49,2.03,3.51,3.26,1.02,1.23,1.71,2.71,2.08,4.43.41,1.91.39,3.69-.06,5.34s-1.23,3.09-2.36,4.31c-1.13,1.23-2.56,2.19-4.31,2.9-1.75.71-3.72,1.07-5.92,1.1-3.73.03-6.65-.43-8.78-1.39-2.12-.96-3.26-2.33-3.4-4.13l.16-7.6,1.73.04c.55,3.74,1.69,6.56,3.42,8.46,1.73,1.9,4.03,2.88,6.9,2.95,1.38.03,2.57-.18,3.56-.62,1-.44,1.8-1.06,2.42-1.85.61-.79,1.02-1.74,1.24-2.85.21-1.11.18-2.32-.09-3.64-.2-1.16-.8-2.17-1.81-3.03-1.01-.86-2.19-1.68-3.55-2.45-1.36-.77-2.83-1.54-4.39-2.3-1.57-.76-3.04-1.63-4.42-2.61-1.38-.98-2.56-2.11-3.56-3.38-1-1.27-1.61-2.78-1.83-4.54-.19-1.53,0-2.96.57-4.29.57-1.33,1.45-2.48,2.65-3.46s2.65-1.74,4.35-2.28c1.71-.54,3.6-.79,5.69-.74,3.72.08,6.53.53,8.41,1.36,1.88.82,3.01,2.08,3.39,3.76l-.17,7.6-1.62-.03c-.52-3.44-1.66-6.12-3.4-8.04-1.75-1.92-3.96-2.91-6.64-2.97-2.79-.06-4.75.54-5.88,1.8-1.13,1.26-1.49,2.96-1.09,5.09Z"/>
        <path class="cls-6" d="M533.65,813.24l7.72-.9,2.02,17.26,15.82-1.85-2.02-17.26,7.66-.9,4.54,38.86-7.66.89-2.33-19.93-15.82,1.85,2.33,19.93-7.72.9-4.54-38.86Z"/>
        <path class="cls-6" d="M571.96,808.06l7.63-1.47,7.39,38.42-7.63,1.47-7.39-38.42Z"/>
        <path class="cls-6" d="M586.83,805.28l13.18-3.49c2.16-.57,4.26-.64,6.3-.22s3.92,1.28,5.66,2.58,3.26,3.02,4.6,5.17c1.34,2.15,2.39,4.67,3.15,7.55.72,2.74,1.01,5.36.87,7.86-.15,2.51-.66,4.77-1.53,6.79-.87,2.02-2.08,3.74-3.64,5.15-1.55,1.41-3.36,2.39-5.41,2.93l-13.18,3.49-10-37.82ZM603.91,839.5l5.67-1.5c2.23-.59,3.63-2.5,4.18-5.73.55-3.23.08-7.69-1.43-13.38-.91-3.42-1.79-6.21-2.65-8.38-.86-2.16-1.76-3.83-2.68-5.01-.93-1.18-1.92-1.91-2.98-2.19-1.06-.28-2.25-.24-3.58.11l-5.67,1.5,9.15,34.58Z"/>
        <path class="cls-6" d="M652.54,812.67l2.68,7.35c.43,1.19.38,2.36-.15,3.5-.53,1.15-1.4,1.94-2.59,2.37l-19.32,7.04-13.4-36.76,19.33-7.04c1.19-.43,2.36-.38,3.5.15,1.15.53,1.94,1.4,2.37,2.59l2.68,7.35-1.52.56c-1.72-3.1-3.76-5.19-6.1-6.28-2.34-1.09-5.16-1.04-8.45.16l-3.94,1.44,5.87,16.12,9.4-3.43.57,1.58-9.4,3.43,5.8,15.91,3.99-1.45c3.26-1.19,5.42-2.95,6.49-5.28,1.07-2.33,1.29-5.25.65-8.74l1.52-.56Z"/>
        <path class="cls-6" d="M664.03,777.76c2.38-1.15,4.8-1.76,7.24-1.84,2.44-.08,4.78.33,7.01,1.22,2.23.89,4.28,2.24,6.16,4.05,1.88,1.8,3.45,4.02,4.71,6.64,1.28,2.65,2.04,5.27,2.29,7.86.25,2.59.03,5.02-.68,7.3-.7,2.28-1.85,4.35-3.43,6.21-1.59,1.86-3.59,3.37-6.01,4.53-2.38,1.15-4.79,1.76-7.21,1.83-2.43.07-4.75-.34-6.98-1.23-2.23-.89-4.28-2.24-6.16-4.05-1.88-1.8-3.45-4.02-4.71-6.64-1.23-2.55-1.95-5.13-2.17-7.73-.22-2.6.02-5.06.7-7.38.69-2.31,1.82-4.41,3.4-6.28,1.58-1.87,3.53-3.37,5.84-4.48ZM680.59,812.22c3.16-1.52,4.86-3.96,5.1-7.32.24-3.36-.93-7.95-3.52-13.78-2.37-5.35-5.06-9.05-8.09-11.09-3.03-2.04-6.14-2.29-9.33-.76-3.06,1.47-4.72,4-4.99,7.61-.27,3.6.87,8.06,3.42,13.37,2.71,5.64,5.48,9.44,8.3,11.39,2.82,1.95,5.86,2.15,9.11.58Z"/>
        <path class="cls-6" d="M709.84,752.29l1.43-.88,13.64,22.06c1.1,1.78,1.8,3.54,2.1,5.31.3,1.76.22,3.48-.24,5.14s-1.29,3.24-2.5,4.73-2.77,2.83-4.71,4.03c-1.36.84-2.97,1.62-4.81,2.32-1.84.7-3.71,1.13-5.6,1.3-1.89.16-3.7-.07-5.42-.69-1.72-.62-3.13-1.82-4.23-3.6l-14.9-24.1,6.47-4,14.14,22.87c.22.35.53.8.94,1.36.41.56.93,1.13,1.55,1.71.62.58,1.32,1.11,2.1,1.59.78.48,1.65.82,2.6,1.02.95.2,1.99.21,3.1.02,1.11-.18,2.29-.66,3.52-1.42,3.3-2.04,5.34-4.56,6.13-7.57.79-3.01.13-6.22-1.99-9.65l-13.31-21.54Z"/>
        <path class="cls-6" d="M737.59,731.57c1-.77,2.12-1.06,3.34-.87,1.22.19,2.25.76,3.08,1.72l5.2,5.87-1.29.99c-2.56-2.36-5.15-3.68-7.77-3.98-2.62-.29-5.3.56-8.03,2.57l22.77,29.72-6.12,4.69-22.78-29.72c-2.65,2.12-4.17,4.48-4.57,7.09-.4,2.61.21,5.45,1.82,8.53l-1.29.99-4.32-6.55c-.71-1.05-1-2.19-.86-3.42.14-1.23.71-2.23,1.71-3l19.08-14.62Z"/>
      </g>
      <path class="cls-8" d="M839.78,449.16c0,184.1-149.25,333.35-333.35,333.35s-333.35-149.25-333.35-333.35c0-23.58,2.45-46.61,7.12-68.8h652.47c4.67,22.19,7.12,45.22,7.12,68.8Z"/>
      <g>
        <g>
          <line class="cls-5" x1="379.78" y1="534.16" x2="379.78" y2="583.31"/>
          <g>
            <line class="cls-5" x1="377.67" y1="592.78" x2="379.73" y2="596.51"/>
            <line class="cls-5" x1="376.4" y1="534.16" x2="376.4" y2="583.31"/>
            <line class="cls-5" x1="379.78" y1="547.5" x2="379.78" y2="596.66"/>
          </g>
        </g>
        <g>
          <line class="cls-5" x1="633.17" y1="534.16" x2="633.17" y2="583.31"/>
          <g>
            <line class="cls-5" x1="635.29" y1="592.78" x2="633.22" y2="596.51"/>
            <line class="cls-5" x1="636.55" y1="534.16" x2="636.55" y2="583.31"/>
            <line class="cls-5" x1="633.17" y1="547.5" x2="633.17" y2="596.66"/>
          </g>
        </g>
        <g>
          <path class="cls-2" d="M462.28,649.96v.4c-2.68.1-5.16.6-7.84.7-2.99.2-5.98.2-9.07.2-1.24,0-1.96.5-2.68,1.51-6.91,10.03-14.02,20.16-21.03,30.19-1.44,2.01-3.09,4.01-4.54,6.02-.93,1.3-1.96,1.71-2.89,1.1-.93-.5-1.03-1.51-.21-3.01.72-1.81,1.96-3.11,3.3-4.51,2.17-2.11,3.92-4.61,5.67-7.02,5.36-7.62,10.52-15.25,15.77-22.77.21-.4.41-.8.82-1.3-.72-.1-1.13-.2-1.55-.2-3.92,0-7.84.1-11.86,0-1.24,0-2.06.5-2.58,1.51-2.78,4.01-5.57,8.22-8.45,12.14-1.65,2.51-3.71,4.51-5.57,6.72-.82,1.2-1.75,2.21-2.58,3.21-.82-.6-.31-1.4,0-1.91,1.65-2.71,3.09-5.52,4.85-8.12,2.78-4.31,5.57-8.33,8.45-12.54.1-.2.1-.4.41-.8-.62,0-.93-.1-1.44-.1-6.6,0-13.2,0-19.8.1-9.59.3-19.18.6-28.87.9-3.3,0-6.39.3-9.69.4-.72,0-1.96.1-1.96-1-.1-1.1.93-1.4,1.86-1.5,2.58-.2,5.16-.7,7.53-.7,10.21-.4,20.31-.7,30.31-1,7.53-.2,15.16-.3,22.68-.3,1.34,0,2.16-.5,2.78-1.6,5.46-7.72,11.03-15.45,16.5-23.27,1.86-2.41,3.51-4.81,5.57-7.32.41-.7,1.03-1.51,2.47-1.1-.31.9-.52,1.71-1.03,2.31-2.27,3.51-4.64,7.02-7.01,10.53-4.33,6.42-8.87,12.84-13.2,19.26-.1.3-.31.5-.52,1.1h13.61c1.03,0,1.55-.4,2.16-1.3,5.36-7.62,10.62-15.35,15.88-23.17,2.89-4.11,5.88-8.42,8.76-12.74.41-.7.83-1.61,1.96-1.1.82.4.82,1.4.21,2.51-1.44,2.51-2.99,5.02-4.64,7.42-5.88,8.93-11.86,17.65-17.73,26.48-.41.4-.62,1.1-1.13,1.91,5.67.1,11.03.2,16.29,1.81Z"/>
          <path class="cls-2" d="M483.52,647.75c1.13-.2,2.99-.4,4.23-.6.72,0,.93,0,1.55.2.41.2.82.8.72,1.3,0,.2-.72.8-1.03.8-1.34.3-2.47.5-3.82.6-2.58.5-5.15.8-7.63,1.3-.72.1-1.34.4-1.86,1-2.89,2.61-4.33,4.41-6.91,5.22-3.71,1.1-7.53-1.3-2.47-9.13,1.75-2.71,4.33-4.81,7.01-6.92,1.13-.8,2.27-1.5,3.92-1.6,2.27-.2,3.61.8,3.51,3.01,0,1-.62,2.21-.82,3.41-.31.6-.62,1.2-1.03,2.11,1.65-.3,3.2-.4,4.64-.7ZM473.01,651.46c-2.17,0-3.61-.6-4.02-2.51-4.74,5.52,1.34,8.22,4.02,2.51ZM472.39,646.45c-.31.5-.41,1.1.31,1.6.82.8,2.68.7,3.2-.4.83-1.1,1.44-2.51,1.86-3.71.21-.2,0-.8,0-1.61-2.58.8-4.23,2.21-5.36,4.11Z"/>
          <path class="cls-2" d="M505.17,647.25c2.89-1.6,5.57-3.21,8.45-4.61,1.13-.6,2.47-1.2,3.71-1.4,1.96-.4,3.4.4,3.71,2.41.31,1.2.31,2.61.1,3.81-.31,3.01,1.13,3.71,3.81,2.91,1.86-.4,4.33-1.61,6.08-2.21,1.65-.5,2.27-.4,2.58.1.41.6.21,1.71-1.44,2.31-2.58,1.4-5.26,2.61-8.25,2.91-3.71.4-5.57-1.3-5.67-4.81,0-.8.1-1.4.1-2.21,0-2.81.41-4.31-2.37-2.51-2.78,1.5-6.19,3.91-8.97,5.42-.93.6-2.06,1-3.09,1.2-2.16.6-3.51-.2-4.23-2.31-.93-2.21-.21-3.41-2.68-1.71-2.68,2.01-5.57,5.42-8.25,7.52-.62.5-1.13,1-1.86,1.4-1.24.4-2.17-.3-1.96-1.61.1-.6.31-1,.72-1.6,1.55-3.01,3.09-5.92,4.85-9.03.1-.4.31-1,.62-1.2.41-.3,1.03-.6,1.44-.4.31.1.72.7.72,1.2-.21.7-.52,1.3-.72,1.91-.52,1-2.27,4.01-2.37,5.22,1.13-.7,3.51-3.61,4.74-4.41.83-.6,1.65-1,2.47-1.4,2.27-.9,3.92-.1,4.74,2.21.1.4.21.9.31,1.3,1.03.5,1.86,0,2.68-.4Z"/>
          <path class="cls-2" d="M554.77,647.75c.83-.1,1.34,0,1.75.7.31.7,0,1.4-.62,1.71-5.05,2.51-10.72,3.81-16.19,4.11-3.71.2-9.38-.2-7.94-5.62.93-2.61,1.44-3.31,3.71-4.51,2.47-1.1,5.26-1.5,7.73-1.5,1.03.1,1.86.7,2.06,1.71.21,1-.21,1.91-1.13,2.41-1.34.8-2.89,1.4-4.54,1.91-1.24.3-2.68.4-4.02.4-2.06,0-2.06,1.1-1.13,2.01,2.68,2.61,15.57,0,18.45-2.61.62-.3,1.24-.5,1.86-.7ZM534.76,647.75c2.06.2,6.08-.7,7.73-2.21,1.86-2.31-4.33,0-7.73,2.21Z"/>
          <path class="cls-2" d="M560.95,643.04c-2.06,1.2-5.57,4.71-3.09,6.72,1.34,1.3,2.89,2.81,4.43,4.01,3.92-1.71,7.84-2.81,11.75-5.02.72-.4,1.44-.7,2.27-.8.72,0,1.44.1,1.75,1-.41,1.2-1.55,1.5-2.47,1.81-3.71,1.6-11.44,3.51-13.3,6.22-.62,1.1-1.65,2.11-2.78,2.91-2.89,1.81-5.98,3.21-9.49,3.61-.93.1-1.96,0-2.89-.2-.52-.1-.93-.8-1.03-1.4-.21-.6.52-.8,1.03-1.2,3.3-2.61,7.01-4.71,11.75-6.22-.41-.4-.93-.7-1.34-1.2-.93-.8-1.86-1.6-2.58-2.51-1.55-1.91-1.55-4.11.1-5.92,2.37-2.41,5.15-4.11,8.56-4.51,2.06-.3,3.51.3,4.12,1.71.83,1.5.31,3.01-.82,4.21-1.13,1.3-1.86,1.81-3.4,2.41-.1-.2-.31-.3-.41-.6,2.58-2.31,2.47-7.62-2.17-5.01ZM559.3,656.98c-2.58,0-6.7,1.1-8.45,3.41-1.86,3.21,4.74.1,8.45-3.41Z"/>
          <path class="cls-2" d="M573.63,625.18c.41-.6,1.13-1.4,4.02-1.2,4.54.4,9.59.4,14.33-.2.21-.1.41-.3.51-.5,3.81-5.22,3.2-4.92,7.11-9.93.41-.8,1.44-1.71,2.27-1,.31.2.41,1.1.41,1.61-.1.5-.72,1.1-.93,1.5-3.09,4.11-1.65,2.71-5.67,8.42,5.88,1,19.18.8,29.59-.3,3.3-.3,6.29-.6,8.25-.5,3.4.2,2.89,1.71,0,2.31-7.53,1.3-33.1,1.1-39.59.9-4.74,5.82-10.41,14.54-13.4,20.06-2.47,4.71-5.88,12.64.83,9.93,2.99-1.1,8.04-4.41,11.24-7.02.62-.4,1.03-.9,1.65-1.2.82-.5,1.44-.9,2.06-.1.52.8.1,1.6-.62,2.21-1.75,1.51-8.76,6.42-14.12,8.22-9.28,3.11-6.39-6.42-4.43-10.83,3.2-7.42,9.38-15.25,13.2-21.16-4.54.1-9.59.2-13.4.2-3.2.4-3.51-1-3.3-1.4Z"/>
          <path class="cls-2" d="M609.41,650.46c0-1.1.21-2.21.41-3.51-3.51,2.11-6.81,4.31-10.41,6.12-.82.6-1.96.7-2.89.8-1.34.2-2.58-.2-3.2-1.3-.72-1.2-.41-2.31.31-3.31.62-.8,1.13-1.4,1.96-2.11,3.61-3.01,7.84-4.61,12.78-4.21.72.1,1.55-.1,2.17-.8.93-.9,1.86-1.91,2.78-2.81.31-.4.72-.9,1.13-1,.41-.1,1.13-.1,1.55.1.31.4.52.9.41,1.51-.1.7-.41,1.3-.83,2.01-.83,1.71-6.19,11.33.1,9.53,1.65-.4,3.61-1.6,5.57-2.51.52-.2,1.13-.7,1.75-.6.72.2,1.24,1,.31,1.4-3.09,2.81-13.92,7.62-13.92.7ZM607.86,644.94c-4.12.3-9.28,2.61-11.65,6.02,4.02-.7,8.87-3.41,11.65-6.02Z"/>
          <path class="cls-2" d="M637.97,652.77c2.58-1.3,5.05-2.71,7.63-4.01.72-.4,1.44-.6,2.17-.6.51,0,1.24.5,1.44.8.41.7,0,1.2-.82,1.71-1.34.8-2.99,1.4-4.43,2.31-3.51,2.21-7.11,4.51-10.72,6.72-2.16,1.4-3.3,3.61-4.85,5.62-4.23,6.32-8.76,12.34-14.23,17.75-1.13,1-2.27,1.91-3.61,2.81-.82.6-1.65,1.1-2.78,1.4-1.55.3-2.78-.6-2.58-2.31,0-.8.31-1.71.72-2.41,1.86-3.81,4.74-7.02,7.84-9.93,4.64-4.31,9.38-8.43,14.12-12.74.72-.8,1.55-1.71,2.17-2.61,2.27-3.51,4.54-7.22,6.81-10.93-1.13,0-1.65.6-2.17,1-2.47,1.71-4.95,3.61-7.94,4.61-.41.3-.83.5-1.34.5-2.78.4-4.54-1.1-3.82-3.81.41-1.3,1.03-2.51,1.65-3.71,1.13-1.81,2.27-3.61,3.51-5.32.62-.8,1.44-1.4,2.58-.3-.31.5-.41,1.2-.93,1.71-1.13,2.21-2.37,4.21-3.61,6.32-.31.7-.41,1.4-.93,2.51,1.13-.2,1.86-.1,2.47-.4,1.86-1.1,3.71-2.11,5.47-3.31,2.27-1.71,4.33-3.51,6.6-5.32.82-.8,1.75-1.51,3.09-.8.93.5,1.03,1.6.1,3.31-1.44,2.91-3.2,5.82-4.74,8.93-.21.3-.41.6-.83,1.51.93-.4,1.44-.6,1.96-1ZM609.51,682.65c2.89-1.6,9.49-8.83,11.75-12.84-4.74,3.71-10.62,10.23-11.75,12.84Z"/>
        </g>
        <rect class="cls-5" x="344.92" y="583.31" width="323" height="121.87" rx="28.65" ry="28.65"/>
        <circle class="cls-3" cx="379.78" cy="596.66" r="4.03"/>
        <circle class="cls-3" cx="633.4" cy="596.66" r="4.03"/>
      </g>
      <path class="cls-9" d="M507.61,294.5c.57,1.66.58,3.35,0,5.02-.58-1.66-.57-3.35,0-5.02h0Z"/>
      <path class="cls-9" d="M617.1,288.22c-21.87.79-45.94,1.05-67.81.73,21.87-.79,45.94-1.04,67.81-.73h0Z"/>
      <path class="cls-9" d="M475.06,295.48c2.86-.08,5.84-.2,8.84-.24.12,5.23.14,12.66.17,17.97,0,0,0,.37,0,.37l-.37.04-8.59,1.04-.42.05v-.42c0-5.37.25-13.37.38-18.8h0ZM475.06,295.48c.13,5.42.36,13.46.37,18.8,0,0-.42-.37-.42-.37l8.58-1.12-.36.41c.02-5.23.08-12.57.19-17.72,0,0,.24.24.24.24-2.81-.05-5.65-.17-8.6-.24h0Z"/>
      <path class="cls-9" d="M493.32,312.65c1.37-.54,2.76-.51,4.1.11-1.37.54-2.76.5-4.1-.11h0Z"/>
      <path class="cls-9" d="M492.68,293.73c.57,8.03.58,16.09,0,24.12-.58-8.03-.57-16.09,0-24.12h0Z"/>
      <path class="cls-9" d="M462.64,293.04c.09,8,.23,15.99.26,23.99v.22s-.22.04-.22.04c-.12,0-19.37,3.21-19.48,3.19-8.25-.63-24.88-1.96-33.13-2.64,0,0,0-.78,0-.78l4.66-.44c6.95.51,21.35,1.66,28.09,2.23.01,0,16.72-2.11,16.73-2.11l2.74.11-2.74-.04s-16.67,2.5-16.67,2.5c-6.91-.44-21.44-1.44-28.08-1.93,0,0-4.65.47-4.65.47v-.78c8.26.64,24.87,1.99,33.12,2.69-.43.04,19.43-2.98,19.34-2.97,0,0-.22.26-.22.26.04-8,.17-15.99.26-23.99h0Z"/>
      <path class="cls-9" d="M392.26,332.16c3.95-.06,7.83.45,11.63,1.54-3.95.06-7.83-.46-11.63-1.54h0Z"/>
      <path class="cls-9" d="M443.75,342.52c6.1.55,12.14,1.67,18.03,3.34-6.1-.55-12.14-1.67-18.03-3.34h0Z"/>
      <path class="cls-9" d="M443.18,332.81c.57,2.63.58,5.28,0,7.9-.58-2.63-.57-5.28,0-7.9h0Z"/>
      <path class="cls-9" d="M410.1,336.55c10.87,1.36,21.67,3.27,32.34,5.73-10.87-1.35-21.67-3.27-32.34-5.73h0Z"/>
      <path class="cls-9" d="M443.75,341.17c6.09.44,12.13,1.45,18.03,3.02-6.09-.43-12.13-1.45-18.03-3.02h0Z"/>
      <path class="cls-9" d="M624.21,332.74c16.08.3,32.16,1.15,48.18,2.58-16.08-.29-32.16-1.16-48.18-2.58h0Z"/>
      <path class="cls-9" d="M634.22,289.64c.32.52.15.74-.43.56-.32-.52-.15-.74.43-.56h0Z"/>
      <path class="cls-9" d="M514.86,294.99c.57,5.4.58,10.86,0,16.26-.58-5.4-.57-10.86,0-16.26h0Z"/>
      <path class="cls-9" d="M443.18,342.28l-.05-1.25v-.03c3.44-1.66,6.91-3.26,10.37-4.85,10.1-4.52,21.24-9.43,31.51-13.4-9.87,4.83-21.07,9.69-31.23,14.03-3.45,1.4-7.23,3.07-10.54,4.26,0,0-.05,1.25-.05,1.25h0Z"/>
      <path class="cls-9" d="M547.05,320.05c.57,1.83.58,3.67,0,5.5-.58-1.83-.57-3.67,0-5.5h0Z"/>
      <path class="cls-9" d="M508.97,294.63c.57,1.05.58,2.14,0,3.2-.58-1.05-.57-2.14,0-3.2h0Z"/>
      <path class="cls-9" d="M510.45,294.63c.57.78.58,1.61,0,2.39-.58-.78-.57-1.61,0-2.39h0Z"/>
      <path class="cls-9" d="M402.43,275c.37.04.39.22.04.35-.37-.04-.39-.22-.04-.35h0Z"/>
      <path class="cls-9" d="M402.97,274.45c.37.1.41.42.06.59-.38-.1-.41-.41-.06-.59h0Z"/>
      <path class="cls-9" d="M628.77,287.88c.24.64-.03,1.03-.72,1.01-.24-.64.03-1.03.72-1.01h0Z"/>
      <path class="cls-9" d="M629.2,288.96c-.33-.53-.15-.83.48-.75.34.53.15.83-.48.75h0Z"/>
      <path class="cls-9" d="M622.83,287.53c-.27-.61-.02-.98.65-.94.27.61.02.97-.65.94h0Z"/>
      <path class="cls-9" d="M623.9,287.88c-.2-.7.11-1.14.84-1.17.2.7-.11,1.14-.84,1.17h0Z"/>
      <path class="cls-9" d="M617.8,286.39c-.25-.66.03-1.07.73-1.09.25.66-.03,1.07-.73,1.09h0Z"/>
      <path class="cls-9" d="M619.12,286.71c-.24-.64.02-1.04.72-1.03.25.64-.03,1.03-.72,1.03h0Z"/>
      <path class="cls-9" d="M541.64,267.75c1.06-.08,2.12-.12,3.19-.18,2.04.75,4.09,1.49,6.11,2.29,6.03,2.38,12.02,4.85,17.85,7.7-6.15-2.06-12.16-4.49-18.13-7.02-1.89-.8-4.24-1.83-5.86-2.61-1.05-.06-2.11-.1-3.16-.18h0Z"/>
      <path class="cls-9" d="M518.05,267.14c5.64-.97,11.37-1.38,17.09-1.2-5.64.97-11.37,1.37-17.09,1.2h0Z"/>
      <path class="cls-9" d="M545.46,291.36c12.8-.3,33-.38,45.95-.42,12.99-.09,33.11-.36,45.95,0-29.53.69-62.35,1.13-91.91.41h0Z"/>
      <path class="cls-9" d="M412.26,279.5l-13.29-.87.08-.05-.21.53-.03.06-.07-.02-.93-.24h-.02s-.02-.03-.02-.03l-.44-.48-.02-.02v-.03s0-.97,0-.97v-.06s.05-.03.05-.03l.77-.4-.05.09v-1.11s0-.1,0-.1h.11s.96,0,.96,0h-.03s3.1-1.01,3.1-1.01l-.09.12v-.49s0-.1,0-.1l.1-.02,4.04-.96-.12.15v-.46s0-.12,0-.12l.12-.03,4.35-1.22-.07.03.28-.23.05-.04h.07s.43,0,.43,0h-.06s3.4-1.15,3.4-1.15l-.12.1.2-.37.06-.11h.13s.55,0,.55,0h-.06s3.4-.93,3.4-.93l-.13.1.2-.34.06-.11h.12s.57,0,.57,0h-.06s3.09-.87,3.09-.87l-.1.06.35-.35.07-.07h.1s.8,0,.8,0h-.07s3.27-1.12,3.27-1.12l-.16.22v-.32s0-.19,0-.19c.15-.02.93-.19,1.09-.21,0,0,.4,0,.4,0h-.07s2.88-.86,2.88-.86l-.17.23v-.41s0-.22,0-.22l.22-.02.77-.09.14-.02.09.11.13.17-.21-.09.42-.03h-.06s2.83-.97,2.83-.97l-.17.2.05-.31.03-.21h.22s.9,0,.9,0h-.08s2.52-.77,2.52-.77l-.18.25v-.29s0-.26,0-.26h.26s.68,0,.68,0h-.07s2.88-.83,2.88-.83l-.19.26c0-.13,0-.41,0-.54,0,0,.27,0,.27,0h.61s-.09.01-.09.01l4.06-1.38-.19.26v-.85s0-.14,0-.14l.11-.08,1.14-.86.12-.09.15.06,1.24.47-.1-.02h.92s.29,0,.29,0v.29s0,.39,0,.39l-.3-.29,3.78-.21-.28.3v-.23s0-.3,0-.3h.3s.7,0,.7,0h.3s0,.3,0,.3v.14s-.32-.3-.32-.3c3.66-.26,8.81-.56,12.38-1.08,0,0-.28.32-.28.32v-.17s0-.28,0-.28c.38-.06,1.45-.22,1.82-.28,0,0,.07.29.07.29l.05.21-.36-.24,2.52-.36-.26.21.14-.35.07-.19c.22-.02.82-.08,1.04-.1,0,0,.1.08.1.08l.46.34-.24-.06,2.53-.3-.29.26c.03-.13.08-.39.11-.51,0,0,.27,0,.27,0h.8s.34,0,.34,0c0,.14,0,.44,0,.58l-.39-.34,2.53-.34-.2.1.3-.31.09-.09h.13s.83-.08.83-.08l.21-.02.11.19.17.29-.34-.17,2.72-.33-.31.35v-.43s0-.35,0-.35h.36c.35,0,1.69,0,1.98,0,.01.15,0,.44,0,.58,0,0-.41-.35-.41-.35l2.28-.34-.3.29.03-.18.05-.27.28-.02.91-.06.54-.04-.17.52-.08.24-.39-.48,2.68-.32-.31.26c.05-.12.1-.38.15-.5,0,0,.26-.02.26-.02.35,0,1.34-.1,1.66-.11,0,0,0,.4,0,.4v.32s-.44-.37-.44-.37l2.86-.5-.32.37c0-.17,0-.52,0-.69.46,0,1.28,0,1.73,0,.02.16-.01.47,0,.63,0,0-.43-.38-.43-.38l3.2-.42-.32.27c.04-.12.11-.36.15-.48,0,0,.26-.03.26-.03l.7-.07.19-.02c.08.09.43.46.52.55,0,0-.34-.12-.34-.12l3.05-.41-.35.39v-.43s0-.4,0-.4h.4c.22.01.97-.01,1.16,0,0,0,.11.24.11.24l.11.23-.41-.23c1.11-.12,2.22-.22,3.32-.36l-.36.41c0-.17,0-.49,0-.66,0,0,.37-.03.37-.03.28-.03.88-.07,1.15-.1,0,0,0,.45,0,.45v.25s-.44-.41-.44-.41l1.57-.1-.38.34c.03-.16.09-.5.12-.66,0,0,.34,0,.34,0l1.89-.05-.35.21.18-.32.12-.21c.39,0,1.07,0,1.46,0,0,.18,0,.5,0,.66,0,0-.43-.42-.43-.42l1.48-.03-.41.42v-.86s0-.22,0-.22l.18-.12,1.74-1.16.23-.16.23.16,1.65,1.16-.11-.05.41.13.08.03.06.05,2.14,1.84-.25-.1,1.15.02h.2s.12.17.12.17l.62.87-.32-.17h1.06s.16,0,.16,0l.11.11,1.04,1.03-.27-.11,1.21.03h.18s.11.14.11.14l.75.93-.32-.14.99-.04h.16s.12.1.12.1l1.25,1.18-.26-.1h1.05s.15,0,.15,0l.11.11.99.96-.26-.1h1.35s.14,0,.14,0l.1.09,1.11.94-.24-.09h1.02s.13,0,.13,0l.1.09,1.56,1.31-.23-.08h1s.12,0,.12,0l.1.07,1.77,1.32-.21-.07h1.1s.13,0,.13,0l.1.09,1.08.93-.16-.08,1.7.33.14.03.08.12.66.97-.13-.11c1.37.73,3.54,1.91,4.98,2.49,0,0-.18-.03-.18-.03l.61-.07.2-.02.11.17.3.44-.11-.1,1.62.91-.15-.04,1.06.04h.25s.06.25.06.25l.11.47-.18-.22,1.84.87c-.43-.09.95.1.9.08,0,0,.2.02.2.02l.07.18.19.5-.19-.19,2.23.84c-.35-.04.27,0,.28-.02,0,0,.14,0,.14,0l.09.1.25.28-.1-.08,4.87,2.24c-.36-.06.29,0,.3,0,0,0,.15,0,.15,0l.09.12.27.39-.12-.1,1.92.85-.12-.03h.57s.19,0,.19,0l.08.17.15.32-.14-.14,1.94.96-.12-.03.83.03h.19s.07.18.07.18l.18.47-.15-.16,2.92,1.3-.36.12.15-.27.08-.14h.16s1.05-.03,1.05-.03h.14s.09.11.09.11l.16.2-.23-.11,3.52-.18-.23.16.15-.32.07-.14h.16s.9-.08.9-.08h.18s.08.15.08.15l.15.29-.25-.15,3.97-.16-.25.26v-.35s0-.26,0-.26h.26s1.09,0,1.09,0h.07s.06.04.06.04l.33.2-.14-.04,3.6-.06-.14.04.43-.29.06-.04h.07s.79-.04.79-.04h.26s0,.25,0,.25v.23s-.25-.25-.25-.25l4.16-.04-.24.24c-.01-.12.01-.35,0-.47,0,0,.24,0,.24,0h1.46s.24,0,.24,0v.24s0,.25,0,.25l-.25-.24,4.15-.17-.2.14.14-.33.06-.14h.15s.57,0,.57,0h.23s0,.23,0,.23v1.2s0,.02,0,.02v.02s-.55,2.87-.55,2.87l-.16-.25,3.34.82h-.1s.66-.17.66-.17h.04s.04,0,.04,0l.55.08h.1s.05.09.05.09l.38.58-.14-.09,2.84.42-.11.02.49-.23.07-.03.07.03.82.31.08.03.03.07.16.41-.14-.11,2.9.44c-.09,0,.97,0,.96,0,0,0,.06,0,.06,0l.04.04.6.51-.07-.03,2.65.4c-.1,0,1.24-.06,1.23-.05,0,0,.06,0,.06,0l.04.04.59.64-.07-.04,2.62.43c-.06,0,1.77,0,1.77,0,0,0,.04,0,.04,0l.03.03.6.58-.04-.02,2.83.68c-.06,0,1.84.06,1.84.06,0,0,.04,0,.04,0l.02.03.27.46-.04-.03s3.73.82,3.67.81c0,0,.95-.07.95-.07h.03s0,.02,0,.02l.15.49-.02-.02s4.41,1.32,4.39,1.32c0,0,.55-.15.55-.14,0,0,.25.46.25.46l-.26-.45s-.55.15-.55.15c-.02-.02-4.43-1.24-4.43-1.29,0,0-.15-.48-.15-.48l.04.02s-.95.08-.96.08c-.03,0-3.69-.77-3.72-.78,0,0-.01-.02-.01-.02l-.28-.46.05.03s-1.85-.04-1.86-.04c0,0-2.85-.65-2.85-.65h-.02s-.02-.02-.02-.02l-.61-.58.07.03s-1.79.01-1.8,0c0,0-2.63-.4-2.63-.4h-.04s-.03-.04-.03-.04l-.6-.63.1.04-1.25.07h-.01s-.01,0-.01,0l-2.65-.37h-.04s-.03-.03-.03-.03l-.61-.51.1.04h-.99s-.01,0-.01,0h-.01s-2.91-.41-2.91-.41h-.1s-.04-.11-.04-.11l-.16-.41.1.1-.83-.3h.14s-.49.23-.49.23l-.05.02h-.06s-2.85-.4-2.85-.4h-.09s-.05-.09-.05-.09l-.38-.58.15.09-.55-.07h.08s-.66.17-.66.17h-.05s-.05,0-.05,0l-3.34-.81-.2-.05.04-.2.53-2.87v.04s0-1.2,0-1.2l.23.23h-.57s.21-.14.21-.14l-.14.33-.06.13h-.14s-4.15.2-4.15.2h-.25c0-.11,0-.36,0-.48,0,0,.24.24.24.24h-1.46s.24-.24.24-.24v.23s0,.24,0,.24h-.24s-4.16.06-4.16.06h-.25s0-.25,0-.25v-.23s.26.25.26.25l-.79.04.13-.04-.43.29-.06.04h-.07s-3.6.07-3.6.07h-.07s-.06-.04-.06-.04l-.33-.2.13.04h-1.09s.26-.26.26-.26v.35s0,.25,0,.25h-.25s-3.97.19-3.97.19h-.17s-.08-.15-.08-.15l-.15-.29.26.15-.9.07.22-.16-.15.32-.07.15h-.16s-3.52.21-3.52.21h-.14s-.09-.11-.09-.11l-.16-.2.23.11-1.05.03.24-.15c-.06.13-.21.37-.27.5,0,0-.24-.11-.24-.11l-2.93-1.29-.11-.05-.04-.11-.18-.47.26.18-.83-.03h-.06s-.06-.03-.06-.03l-1.95-.95-.09-.05-.04-.09-.15-.32.27.17h-.57s-.06,0-.06,0l-.06-.03-1.93-.85c-.07-.03-.09-.04-.12-.1,0,0-.28-.39-.28-.39l.23.13-.42-.02h-.06s-.05-.03-.05-.03l-4.88-2.23-.06-.03-.04-.05-.25-.28.23.1h-.39s-.08,0-.11-.02c0,0-2.23-.83-2.23-.83l-.13-.05-.05-.14-.19-.5.27.2-1.01-.11s-.07-.01-.1-.03c0,0-1.84-.87-1.84-.87l-.14-.07-.04-.15-.11-.47.31.25-1.06-.03h-.08s-.07-.04-.07-.04l-1.62-.91-.07-.04-.04-.07-.3-.44.32.14-.61.07h-.09s-.09-.03-.09-.03c-1.45-.6-3.62-1.74-5.03-2.49-.07-.03-.09-.05-.13-.11l-.66-.97.22.15-1.71-.33-.09-.02-.07-.06-1.08-.93.23.09h-1.1s-.12,0-.12,0l-.1-.07-1.78-1.31.22.07c-.14,0-1.04,0-1.14,0,0,0-.1-.08-.1-.08l-1.57-1.3.24.09h-1.02s-.13,0-.13,0l-.1-.09-1.12-.94.24.09h-1.35c-.18,0-.14,0-.26-.1,0,0-1-.95-1-.95l.26.11h-1.05s-.15,0-.15,0l-.11-.1-1.26-1.18.28.1-.99.04h-.19s-.12-.14-.12-.14l-.75-.93.29.14c-.12,0-1.29-.02-1.37-.02,0,0-.11-.11-.11-.11l-1.05-1.03.28.11h-1.06s-.2,0-.2,0l-.12-.17-.63-.87.32.17c-.1,0-1.23-.02-1.3-.02,0,0-.11-.09-.11-.09l-2.15-1.83.14.08-.41-.13s-.09-.03-.11-.05c0,0-1.66-1.15-1.66-1.15h.46s-1.74,1.17-1.74,1.17l.18-.34c0,.3,0,.99,0,1.26,0,0-.41.01-.41.01-.32,0-1.62.05-1.91.05,0,0,0-.43,0-.43v-.25s.42.42.42.42h-.79s.36-.21.36-.21l-.18.32-.12.21c-.11-.01-1.97.06-2.13.05,0,0,.4-.34.4-.34-.03.17-.1.48-.13.65,0,0-.32.02-.32.02-.31.02-1.73.1-2.01.12v-.44s0-.25,0-.25l.45.41-.71.06.37-.41v.28s0,.36,0,.36l-.36.05c-1.21.15-2.42.25-3.63.38l-.12-.26-.11-.23.37.24h-.9s.4-.4.4-.4c.01.21,0,.57,0,.78-.21,0-3.13.43-3.4.45,0,0-.2.03-.2.03l-.14-.15-.38-.41.33.12-.7.07.33-.27-.07.24-.08.24-.25.03-3.21.41-.43.06v-.44s0-.25,0-.25l.38.38h-.97s.38-.38.38-.38c0,.16,0,.47,0,.63-.39.04-2.78.49-3.17.54,0,0-.44.07-.44.07.02-.16-.01-.6,0-.76,0,0,.4.37.4.37l-1.26.08.33-.27c-.05.12-.1.37-.14.49,0,0-.24.03-.24.03l-2.68.31-.57.07.18-.54.08-.24.37.48-.91.06.33-.29c-.03.09-.06.33-.09.43-.45.07-2.5.36-2.94.43,0,0,0-.42,0-.42v-.22s.36.36.36.36h-1.62s.36-.36.36-.36v.43s0,.32,0,.32l-.31.04-2.72.32-.23.03-.12-.19-.17-.29.33.17-.83.06.22-.1-.3.31-.08.09-.12.02-2.53.33-.39.05v-.39s0-.24,0-.24l.34.34h-.8s.33-.27.33-.27c-.04.12-.07.37-.11.48,0,0-.24.03-.24.03l-2.53.29h-.13s-.11-.06-.11-.06l-.45-.34.23.06-.71.06.28-.21-.14.35-.07.18-.19.03-2.52.35-.29.04-.07-.28-.05-.21.36.24-1.26.19.27-.32v.17s0,.29,0,.29l-.28.03c-3.58.5-8.78.8-12.41,1.04,0,0-.32.02-.32.02v-.32s0-.14,0-.14l.3.3h-.7s.3-.3.3-.3v.23s0,.28,0,.28h-.28s-3.78.21-3.78.21l-.3.02v-.3s0-.39,0-.39l.29.29h-.92s-.05,0-.05,0l-.05-.02-1.24-.47.27-.04-1.14.86.11-.22v.85s0,.2,0,.2l-.19.06-4.07,1.36h-.04s-.04.01-.04.01h-.61s.27-.27.27-.27v.27s0,.2,0,.2l-.19.06-2.88.83h-.04s-.04.01-.04.01h-.68s.26-.26.26-.26v.29s0,.19,0,.19l-.18.06-2.52.77h-.04s-.04.01-.04.01h-.9s.25-.22.25-.22l-.05.31-.02.15-.14.05s-2.85.98-2.87.99c0,0-.03,0-.03,0l-.42.03h-.13s-.08-.09-.08-.09l-.13-.17.22.09-.77.08.22-.24v.41s0,.18,0,.18l-.17.05-2.88.86h-.03s-.03.01-.03.01h-.4c.18-.03-.83.16-.81.16,0,0,.19-.23.19-.23v.32s0,.17,0,.17l-.16.05-3.28,1.12h-.04s-.04.01-.04.01h-.8s.16-.07.16-.07l-.35.35-.04.04-.06.02s-3.11.87-3.12.87c0,0-.03,0-.03,0h-.57s.19-.11.19-.11l-.21.34-.05.07-.08.02-3.41.93h-.03s-.03,0-.03,0h-.55s.18-.11.18-.11l-.2.37-.04.07-.08.03-3.41,1.12h-.03s-.03,0-.03,0h-.43s.12-.04.12-.04l-.29.23-.03.02h-.04s-4.37,1.18-4.37,1.18l.12-.15v.46s0,.12,0,.12l-.12.03-4.05.91.1-.13v.49s0,.09,0,.09l-.09.03-3.11.98h-.02s-.02,0-.02,0h-.96s.1-.11.1-.11v1.11s0,.06,0,.06l-.05.03-.78.4.05-.08v.97s-.03-.06-.03-.06l.43.49-.04-.02.93.25-.09.05.21-.53.02-.05h.05s13.28,1.02,13.28,1.02h0Z"/>
      <path class="cls-9" d="M398.95,278.18s22-1.36,21.55-1.26c0,0,6.85-4.17,6.85-4.17l-.12.21v-.84s0-.15,0-.15l.14-.07,1.84-.9.08-.04.09.02.76.2h-.04s2.99.33,2.99.33l-.13.02.48-.19.11-.05.11.06.95.48c-.49-.11,3.22.49,3.08.46,0,0-.17.03-.17.03l.52-.26.14-.07.14.09.72.45-.1-.04,3.14.56h-.11s.89-.17.89-.17l.15-.03s.69.6.74.65c0,0-.15-.07-.15-.07l3.27.53h-.16s.51-.17.51-.17l.07-.03c.13.02.77.1.9.12.05.04.38.35.43.4,0,0-.18-.08-.18-.08l2.05.25-.37.25c.05-.16.12-.53.16-.68.16,0,.58.03.75.04h.09s.08.06.08.06l.48.33-.13-.05,2.55.46-.34.13c.08-.1.28-.36.36-.46,0,0,.2.02.2.02.09,0,1.02.12,1.07.12.07.07.25.32.32.39-.16-.15.2.17.2.16,0,0-.18-.08-.18-.08.02.02,3.57.47,3.59.48.05,0,4.95,1.6,5,1.61,1.45.47,3.43,1.3,4.88,1.83,0,0,.26.1.26.1,0,.17,0,.53,0,.71,0,0-.3-.39-.3-.39l3.99,1.13.3.09v.32s0,.29,0,.29l-.3-.4,3.21.97.29.09c0,.12,0,.41,0,.53,0,0-.3-.39-.3-.39l3.19.9.3.08c.01.19,0,.55,0,.74,0,0-.3-.39-.3-.39l3.62.93.3.08v.31s0,.28,0,.28l-.28-.38,2.9.91c17.23-.16,43.58-.13,61.06.13-.12-.02-61.18.67-61.29.61,0,0-2.91-.89-2.91-.89l-.28-.09v-.29s0-.28,0-.28l.3.38-3.62-.92-.3-.08c0-.17,0-.57,0-.75,0,0,.29.39.29.39l-3.2-.88-.3-.08c0-.13,0-.41,0-.54l.29.39-3.21-.96-.3-.09v-.31s0-.29,0-.29l.3.4-3.99-1.15-.3-.09c.01-.17,0-.56,0-.73,0,0,.26.38.26.38-2.72-1.14-6.93-2.59-9.78-3.49.33.06-3.57-.5-3.49-.49-.1,0-.11-.01-.18-.08-.26-.21-.32-.29-.51-.54,0,0,.23.13.23.13l-.93-.11.32-.13c-.09.11-.29.36-.37.47l-.21-.04-2.55-.48c-.11,0-.51-.33-.61-.38,0,0,.17.06.17.06l-.47-.03.35-.26c-.04.17-.13.53-.17.7-.27-.03-2.15-.28-2.45-.31-.09-.08-.34-.33-.43-.4,0,0,.18.08.18.08l-.72-.1.15-.02-.51.18-.08.03h-.08s-3.27-.57-3.27-.57l-.09-.02-.07-.06-.63-.56.26.07-.89.16h-.06s-.05,0-.05,0l-3.14-.58h-.06s-.05-.04-.05-.04l-.71-.46.28.02s-.59.28-.6.29c0,0-.09-.01-.09-.01l-3.16-.51h-.04s-.04-.03-.04-.03l-.95-.48h.22s-.48.2-.48.2l-.06.03h-.07s-2.99-.36-2.99-.36h-.02s-.02,0-.02,0l-.76-.2.18-.02-1.84.88.14-.22v.84s0,.14,0,.14l-.12.07-6.88,4.12c-.1.08-21.65.86-21.77.89h0Z"/>
      <path class="cls-9" d="M402.6,293.32c.09,6.46.23,12.93.26,19.39v.24s-.24.03-.24.03c-7.26.79-14.53,1.53-21.8,2.25l.35-.39.03,9.23v.41c-.21,0-.64,0-.85,0l.42-.42v6.2s-.34-.4-.34-.4l11.02,2.3.3.06c0,.28,0,.67,0,.95-.09,0-2.28.46-2.45.49,0,0,.29-.36.29-.36v3.16s-.31-.35-.31-.35l10.85,1.71c2.7-.58,6.43-1.23,9.48-1.81,0,0-.11.13-.11.13l.14-8.63.14,8.63v.11c-3.23.7-6.47,1.44-9.72,2.07,0,0-10.88-1.52-10.88-1.52l-.3-.04v-.31c0-.11-.01-3.48-.01-3.46.07,0,2.3-.48,2.45-.5,0,0-.3.36-.3.36v-.35s.29.36.29.36l-11.04-2.24-.32-.07v-.33s-.01-6.2-.01-6.2v-.42c.21,0,.64,0,.85,0,0,0-.42.42-.42.42l.03-9.23v-.35s.35-.03.35-.03c7.27-.7,14.55-1.37,21.82-2l-.24.26c.04-6.46.17-12.93.26-19.39h0Z"/>
      <path class="cls-9" d="M496.38,293.03c-17.1.04-35.25-.17-52.38-.19,0,0,.38-.38.38-.38v.75s0,.38,0,.38c-.23,0-.94,0-1.18,0,0,0,.38-.38.38-.38-.02.25.01.95,0,1.19,0,0-.38,0-.38,0-.29,0-2.25,0-2.47,0,0-.25,0-.99,0-1.25,0,0,.39.39.39.39-.28,0-1.06,0-1.32,0,0,0,0-.39,0-.39v-.61s.39.39.39.39c-14.67.18-29.34.24-44.01.34-10.94.05-33.07.06-44.02.02,28.56-.58,59.57-.97,88.02-1.14,0,0,.39,0,.39,0v.39s0,.61,0,.61l-.39-.39c.26,0,1.07,0,1.32,0,0,.25,0,.99,0,1.25,0,0-.38-.38-.38-.38h2.09s-.38.38-.38.38c-.01-.26.01-.94,0-1.19.26,0,.92,0,1.18,0,0,0-.38.38-.38.38-.01-.25.01-.89,0-1.13,17.32.04,35.46.57,52.76.94h0Z"/>
      <path class="cls-9" d="M404.78,313.11c-5.91.76-11.84,1.42-17.77,2.01,0,0,0-.73,0-.73,4.6.34,11.04.83,15.57,1.25,0,0,3.23.27,3.23.27-1.37.21-4.2.65-5.55.85-6.2-.48-12.4-1.1-18.59-1.78,6.19.25,12.37.61,18.55,1.04-.42.04,2.35-.39,2.26-.39,0,0,.03.76.03.76-2.59-.21-5.19-.38-7.78-.61l-7.78-.68v-.73c5.94-.5,11.88-.94,17.84-1.28h0Z"/>
      <path class="cls-9" d="M400.32,316.87c.57,2.98.58,5.98,0,8.96-.58-2.98-.57-5.98,0-8.96h0Z"/>
      <path class="cls-9" d="M403.79,316.02c.57,3.08.58,6.18,0,9.27-.58-3.08-.57-6.18,0-9.27h0Z"/>
      <path class="cls-9" d="M431.75,318.15c-.26-7.49-.38-15.62-.39-23.11,0,0,.39.39.39.39-3.33.03-6.66.02-9.99,0l.39-.39c-.02,3.71-.03,7.43-.11,11.14-.05,3.71-.14,7.43-.28,11.14-.26-7.43-.36-14.86-.39-22.29,0,0,0-.39,0-.39,3.59-.03,7.18-.04,10.77,0v.39c-.02,7.5-.14,15.62-.4,23.11h0Z"/>
      <path class="cls-9" d="M430.82,317.59c-.28-7.19-.37-14.37-.4-21.56l.4.4c-2.68.03-5.36.03-8.04,0l.4-.4c-.02,3.57-.03,7.13-.11,10.7-.06,3.57-.14,7.13-.29,10.7-.28-7.13-.37-14.26-.4-21.39v-.39c2.94-.03,5.89-.03,8.83,0-.03,7.32-.11,14.64-.4,21.95h0Z"/>
      <path class="cls-9" d="M501.59,293.04s-.04-1.52,0-1.44c-7.24-.04-21.74-.16-28.98-.25,0,0-28.98-.1-28.98-.1h-.15c-.07-.07-.45-.46-.53-.54l.26.11h-3.13s.24-.08.24-.08c-.06.06-.5.43-.55.48-7.27.12-14.54.23-21.8.28-20.11.17-44.99.52-65,.27,3.61-.05,7.22-.05,10.83-.14,24.05-.53,51.82-.97,75.82-1.16,0,0-.24.09-.24.09l.45-.39c.11-.1.09-.09.24-.09,0,0,3.13.01,3.13.01.17,0,.14-.02.26.11,0,0,.42.44.42.44-1.37-.3,29.04.3,28.72.2,8.45.09,20.42.49,28.97.72,0,0,.02,0,.02,0v.02s-.02,1.45-.02,1.45h0Z"/>
      <path class="cls-9" d="M440.25,295.43c4.13-.06,8.41-.16,12.71-.17.13,6.8.11,13.6.15,20.4v.45s-.45-.04-.45-.04l-12.07-.98-.33-.03c-.08-5.78-.02-13.8-.01-19.64h0ZM440.25,295.43c.24,5.66.56,13.74.73,19.3,0,0-.33-.35-.33-.35l12.08.86-.45.42c.04-6.71.02-13.42.15-20.13l.27.27c-4.08-.08-8.19-.25-12.44-.37h0Z"/>
      <path class="cls-9" d="M446.96,296.73c.15,4.99.39,12.16.39,17.06,0,0-.36-.39-.36-.39l4.32.33-.45.42.06-8.65c.05-2.54.1-6.14.19-8.65,0,0,.16.17.16.17l-4.31-.29h0ZM446.96,296.73l4.32-.05h.16c.1,2.56.14,6.21.2,8.82,0,0,.06,8.65.06,8.65v.46s-.45-.04-.45-.04l-4.31-.39-.36-.03c0-5.79.2-11.69.39-17.41h0Z"/>
      <path class="cls-9" d="M441.42,296.73l4.26-.05h.16c.12,2.51.19,6.08.27,8.63,0,0,.13,8.47.13,8.47v.46s-.45-.04-.45-.04l-4.12-.37-.35-.03c-.09-5.67,0-11.47.1-17.07h0ZM441.42,296.73c.23,4.89.59,11.91.67,16.71,0,0-.36-.38-.36-.38l4.12.31-.45.42v-8.47c.02-2.49.04-6.01.11-8.47,0,0,.16.17.16.17l-4.25-.29h0Z"/>
      <path class="cls-9" d="M361.95,290.4l5.01-.82s1.09.08,1.09.09c0,0-.03,0-.03,0l.41-.16-.04.03.21-.44.02-.03h.04s5.18-.87,5.18-.87c.58,0,1.16-.02,1.73-.06l-.13.09.21-.56.03-.08.08-.02,5.38-1.03h.05s.05,0,.05,0l.66.22h-.11s.65-.13.65-.13l-.15.12.29-.61.05-.1.11-.02,5.27-.88s.07,0,.11,0c0,0,.59.18.59.18-.33,0,.42-.06.41-.07,0,0-.19.14-.19.14l.21-.46.05-.11.13-.02,5.48-.95h.06s.06.01.06.01l.42.14h-.16s.5-.15.5-.15l-.13.09.22-.28.06-.08.1-.02,5.73-1.12h.05s.05,0,.05,0l.47.09h-.12s.4-.09.4-.09l-.18.12.26-.4.07-.1.12-.02,5.24-.9s.07,0,.09,0c0,0,.56.07.56.07h-.09s.43-.07.43-.07l-.21.14c.07-.09.25-.4.31-.48,0,0,.13-.02.13-.02l4.8-.89.12-.02c.07.04.4.25.48.3,0,0-.16-.05-.16-.05l.78.03-.34.25c.03-.13.16-.64.2-.76l.18-.06c.32-.1,2.49-.75,2.74-.83v.46s0,.53,0,.53l-.35-.35h.92c-.91.4,10.12-6.35,9.91-6.26,0,0,.18-.11.18-.11l.19.09,10.69,4.99-.12-.03.61.09.41.06-.06.41-1.63,10.92-.13-.35.4.35-.25-.09h6.05s-.25.1-.25.1l.5-.43-.13.3-.36-11.46.17.29-1.82-1.1.18.05h-1s.18-.06.18-.06l-1.49.89-.16.09-.16-.08-10.28-5.18-.15-.08c0-.26,0-.68,0-.94l.32.07,3.76.87h.05s.04.04.04.04l.29.2-.15-.04.49-.02-.21.16c.03-.09.1-.27.13-.36l.19.04,3.6.66h.04s.03.02.03.02l.39.22c-.19-.06.4.1.39.1,0,0-.24.1-.24.1l.2-.34.08-.13.14.03,3.36.75h.03s.02.02.02.02l.45.26c-.18-.06.31.07.3.06-.19,0,.18-.03.18-.04,0,0,.03,0,.03,0,.04,0,3.3.58,3.33.59.01,0,.6.26.62.27-.13-.03.5.06.49.06-.19.04.31-.12.3-.12,0,0,.03-.01.03-.01h.03s2.3.37,2.3.37h.01s0,0,0,0l.42.17c-.09-.02.57.08.55.07-.15.05.12-.09.12-.1,2.38.37,4.8.83,7.2,1.21-2.29-.36-5.03-.69-7.12-1.08-.02.02-.17.11-.19.13,0,0-.03,0-.03,0l-.57-.07s-.01,0-.02,0c0,0-.42-.16-.42-.16h.02s-2.31-.32-2.31-.32h.05s-.35.13-.35.13c-.02,0-.04.01-.05,0l-.52-.06h-.02s-.02,0-.02,0l-.61-.25h.03s-3.31-.5-3.31-.5h.05s-.24.04-.24.04h-.03s-.37-.07-.41-.08c0,0-.02-.01-.02-.01l-.45-.25.05.02-3.37-.68.22-.1c-.08.12-.21.38-.28.49-.13-.03-.52-.13-.65-.18,0,0-.39-.22-.39-.22l.07.02-3.61-.62.26-.15c-.02.08-.09.24-.12.33-.16.01-.57.02-.73.03,0,0-.07-.05-.07-.05l-.29-.2.08.04-3.77-.83.32-.26v.45s-.15-.24-.15-.24l10.34,5.06h-.32s1.48-.89,1.48-.89l.08-.05h.1s1,0,1,0h.09s.08.05.08.05l1.82,1.08.17.1v.2s.41,11.46.41,11.46v.18s-.13.12-.13.12l-.5.43-.11.09h-.14s-6.05.01-6.05.01h-.14c-.17-.15-.5-.43-.68-.58,0,0,.03-.21.03-.21l1.59-10.92.35.47-.61-.09s-.09-.02-.12-.03c0,0-10.67-5.04-10.67-5.04l.37-.02-10.13,6.24c-.08.05-.09.06-.18.05,0,0-.92,0-.92,0h-.35c0-.21,0-.66,0-.87,0,0,.44.33.44.33l-2.31.68.23-.24c-.04.18-.18.67-.22.84-.24-.01-.88-.05-1.13-.06-.07-.04-.37-.24-.44-.28,0,0,.23.04.23.04l-4.81.86.2-.14c-.03.06-.29.42-.32.49-.15.02-.47.08-.61.1,0,0-.04,0-.04,0l-.56-.07c.43-.04-5.24.87-5.16.86,0,0,.19-.13.19-.13l-.27.4-.06.1-.11.02-.4.09h-.06s-.06,0-.06,0l-.46-.09h.11s-5.74,1.08-5.74,1.08l.16-.1-.22.28-.05.07-.08.02-.5.14-.08.02-.08-.03-.42-.15h.13s-5.49.92-5.49.92l.18-.14-.21.46-.06.12-.13.02-.51.06h-.05s-.05,0-.05,0l-.59-.18h.11s-5.28.85-5.28.85l.16-.12-.3.6-.05.1-.1.02-.65.12h-.06s-.05,0-.05,0l-.66-.24h.1s-5.4.93-5.4.93l.11-.09-.22.55-.03.09c-.6.04-1.28.05-1.8.03,0,0-5.2.76-5.2.76l.05-.04-.22.43v.02s-.04,0-.04,0l-.41.15h-.01s-.01,0-.01,0c.01,0-1.12-.11-1.06-.11,0,0-5.02.72-5.02.72h0Z"/>
      <path class="cls-9" d="M455.63,275.08c28.89-2.37,57.81-4.31,86.74-6.02,0,0,.32-.02.32-.02,0,.17,0,.5,0,.67l-.27-.3c.14.02.46.05.6.07,0,0,0,.26,0,.26v.65s-.29-.29-.29-.29h1.57s-.13.04-.13.04l.33-.17.11-.06c6.86,2.67,13.69,5.43,20.52,8.16-6.5-2.49-14.73-5.19-20.38-7.62,0,0-.32.17-.32.17l-.06.03h-.07s-1.57.01-1.57.01h-.29c0-.19,0-.75,0-.94l.26.29c-.16-.01-.45-.05-.6-.06,0-.15,0-.47,0-.62,0,0,.32.3.32.3-7.23.55-14.46,1.02-21.68,1.52-21.69,1.48-43.39,2.82-65.1,3.89h0Z"/>
      <path class="cls-9" d="M544.64,269.79l.26-.41s.02-.02.05-.01c7.28,2.33,14.41,5.14,21.3,8.48-7.3-2.28-14.42-5.11-21.33-8.4,0,0,.05-.01.05-.01l-.32.36h0Z"/>
      <path class="cls-9" d="M561.44,278.88c11.16-.7,23.46-1.08,34.64-1.04-11.16.71-23.46,1.07-34.64,1.04h0Z"/>
      <path class="cls-9" d="M596.49,280.79l-.48.97-.03-.08,3.81.72s.06.02.07.03c0,0,.27.18.27.18-.3-.1.34.04.34.03,0,0-.14.02-.14.02l.27-.15.07-.04.09.02,3,.57h.07s.06.06.06.06l.24.19-.13-.07.62.11-.23.04c.08-.04.2-.14.27-.18,1.22.23,2.44.49,3.66.75.04.06.24.3.29.37,0,0-.29-.14-.29-.14h.42s-.14.02-.14.02l.3-.12c.12-.05.11-.05.23-.02,0,0,3.52.81,3.52.81l.11.03c.05.05.27.27.33.32,0,0-.18-.1-.18-.1l.47.13h-.23c.08-.02.64-.2.7-.22l.12.03c1.24.31,2.47.67,3.71,1.01.05.03.38.26.43.29-.46-.18,1.05.31.99.28,0,0-.25.01-.25.01.06-.03.33-.13.39-.15,0,0,.12.03.12.03l3.34.88h.04s.03.03.03.03l.57.29-.16-.04h.57s.05.01.05.01h.03s4.08,1.06,4.08,1.06h.04s.03.03.03.03l.44.28-.12-.03h.66s-.08.03-.08.03l.29-.11.07-.03.06.02s4.13,1.21,4.13,1.22c0,0,.44.34.44.34h-.02s.71.03.71.03l-.71.03s-.02,0-.02,0c0,0-.47-.29-.47-.29h.02s-4.18-.91-4.18-.91h.13s-.29.11-.29.11c-.02.01-.06.02-.08.02,0,0-.66.01-.66.01h-.06s-.06-.04-.06-.04l-.45-.26.07.03-4.13-.87h.08s-.57.02-.57.02h-.08s-.08-.04-.08-.04l-.57-.29.07.03-3.35-.83.24-.02c-.09.04-.31.12-.4.16-.11-.03-1.17-.34-1.29-.37,0,0-.05-.03-.05-.03l-.38-.25.12.05c-1.22-.32-2.44-.62-3.65-.96h.23c-.08.02-.64.19-.71.21-.15-.04-.53-.16-.68-.2-.06-.05-.25-.26-.31-.32,0,0,.19.11.19.11l-3.51-.86.23-.02s-.35.14-.37.15c-.12,0-.39,0-.49,0,0,0-.19,0-.19,0-.08-.1-.23-.31-.31-.41,0,0,.21.14.21.14-1.13-.25-2.25-.51-3.37-.79l.24-.04-.17.11-.12.07-.12-.03-.61-.14-.08-.02-.05-.05-.23-.2.13.06-2.97-.7.15-.02-.28.14-.07.04h-.07s-.43-.1-.43-.1h-.05s-.03-.04-.03-.04l-.26-.2.07.03-3.75-1-.07-.02.04-.06.57-.92h0Z"/>
      <path class="cls-9" d="M399.36,277.17c7.19-.93,14.44-1.3,21.69-1.09-7.19.94-14.44,1.3-21.69,1.09h0Z"/>
      <path class="cls-9" d="M423.31,278.88c3.64-.81,7.37-1.12,11.06-.63-3.65.68-7.35.97-11.06.63h0Z"/>
      <path class="cls-9" d="M404.92,313.51c.42,2.14.5,4.29.49,6.45,0,0-.38-.4-.38-.4,1.47.12,2.93.3,4.38.66-1.61.2-3.2.19-4.8.14-.08-2.29-.07-4.58.31-6.85h0Z"/>
      <path class="cls-9" d="M390.15,333.54c3.14.19,7.3.63,9.89,1.07,1.62-.31,3.24-.6,4.87-.87l-.3.36c.01-1.06.08-2.12.12-3.17,1.4-.19,2.8-.33,4.21-.44-1.3.34-2.6.66-3.91.93l.22-.26c.04,1.08.11,2.16.11,3.24-1.74.37-3.48.71-5.23,1.03-3.34-.51-6.67-1.1-9.97-1.89h0Z"/>
      <path class="cls-9" d="M395.39,330.11c3.07-.19,6.09.18,9.01,1.13-3.07.2-6.08-.19-9.01-1.13h0Z"/>
      <path class="cls-9" d="M475.81,297.93c.16.98.24,1.95.31,2.93l-.31-.31c1-.09,2-.14,3-.17l-.4.42c-.03-1.36-.02-2.71.05-4.07l.31.31c-.98-.06-1.97-.15-2.95-.31,1.08-.18,2.16-.26,3.24-.33.14,1.6.19,3.2.18,4.81h-.4c-1.11.02-2.23,0-3.34-.05.07-1.07.15-2.15.33-3.22h0Z"/>
      <path class="cls-9" d="M479.92,297.58c0,1.07.08,2.14.18,3.22l-.19-.18c.94-.09,1.88-.21,2.82-.26l-.4.4c-.02-.7-.02-1.4,0-2.1.03-.7.1-1.4.16-2.1l.24.24c-.91-.08-1.98-.11-2.81-.17,0,0-.02.96-.02.96h0ZM479.92,297.58l-.02-.96v-.02s.02,0,.02,0c1.01-.06,2.03-.2,3.04-.31.15,1.48.25,2.97.19,4.46,0,0-.01.41-.01.41h-.38c-1.01-.03-2.02-.13-3.03-.19.11-1.13.2-2.26.2-3.39h0Z"/>
      <path class="cls-9" d="M475.74,302.91l3.08-.28.19-.02c.05,1.53.15,3.59.17,5.11,0,0,.06,4.89.06,4.89v.37c-.57.07-3.25.38-3.81.44-.02-3.49.14-7.1.31-10.52h0ZM475.74,302.91c.2,3.44.42,6.71.46,10.08l-.43-.38,3.01-.41-.37.41c.02-2.83.09-6.99.22-9.79,0,0,.2.19.2.19l-3.09-.11h0Z"/>
      <path class="cls-9" d="M480.04,302.78c.18,3.3.36,6.44.4,9.68,0,0-.45-.4-.45-.4l2.61-.32-.37.42c0-2.29.04-4.83.14-7.13.04-.79.05-1.58.1-2.38l.19.18-2.63-.05h0ZM480.04,302.78l2.61-.31.17-.02c.1,1.45.14,3.48.2,4.95.04,1.71.05,3.42.06,5.13l-.37.04c-.31.04-2.83.3-3.07.33.03-3.36.2-6.84.41-10.13h0Z"/>
      <path class="cls-9" d="M534.8,291.84c.56,10.64.57,21.31,0,31.96-.57-10.64-.56-21.31,0-31.96h0Z"/>
      <path class="cls-9" d="M545.15,291.49l.02,1.25-.02-.02c12.93-.26,33.37-.38,46.46-.5,13.67-.1,32.98.04,46.46-.01,0,0-.06.07-.06.07l.03-1.61.03.04-2.27-.5,2.28.43h.03s0,.04,0,.04l.03,1.61c-26.12,1.05-55.11.81-81.37.69,0,0-11.62-.19-11.62-.19h-.02s0-.02,0-.02l.02-1.25h0Z"/>
      <path class="cls-9" d="M499.97,293.85c8.86-.32,17.72-.36,26.59-.29,0,0,.4,0,.4,0v.39c-.05,6.71-.15,13.42-.46,20.13-.27-6.71-.33-13.42-.34-20.13,0,0,.4.4.4.4-8.86,0-17.73-.11-26.59-.51h0Z"/>
      <path class="cls-9" d="M506.24,313.3c.59-.17,1.18-.35,1.77-.48,5.81,0,11.61.37,17.35,1.28-5.81.17-11.61-.23-17.37-.97-.39.05-1.21.13-1.75.17h0Z"/>
      <path class="cls-9" d="M506.35,313.53c6.42-.09,12.84.4,19.17,1.45-6.42.09-12.84-.4-19.17-1.45h0Z"/>
      <path class="cls-9" d="M506.44,314.1c.57,2.57.58,5.15,0,7.72-.58-2.57-.57-5.15,0-7.72h0Z"/>
      <path class="cls-9" d="M537.3,293.94c2.77-.05,5.54-.07,8.31-.07v.23c.12,4.91.16,11.99.18,16.97,0,0,0,.32,0,.32-2.71.7-5.43,1.36-8.15,2.05l-.47.12v-.48c-.06-6.29-.03-12.58.12-18.87.32,6.28.52,12.57.63,18.86,0,0-.47-.36-.47-.36,2.61-.68,5.21-1.37,7.82-2.03l-.31.4.05-8.49c0-2.83.09-5.66.13-8.49l.23.23c-2.69-.11-5.39-.24-8.08-.4h0Z"/>
      <path class="cls-9" d="M537.66,314.13c2.8-1.42,5.78-2.3,8.91-2.62-2.8,1.43-5.78,2.3-8.91,2.62h0Z"/>
      <path class="cls-9" d="M597.96,293.1c.12,3.85.25,11.57.3,15.41,0,0-.29-.3-.29-.3,6.42.03,13.16.35,19.58.31,0,0,.23,0,.23,0l.12.19,3.35,5.28.06.1v.11s-.04,8.42-.04,8.42l-.17-.3,1.08.69.16.1v.18s-.12,8.74-.12,8.74v.24s-.23-.02-.23-.02c-3.12-.26-6.23-.5-9.34-.79,3.13.09,6.25.23,9.37.36l-.23.22-.12-8.74.16.28c-.12-.07-1.18-.72-1.26-.76,0,0,0-.2,0-.2l-.04-8.42.06.21-3.39-5.25.35.19c-1.64,0-3.27,0-4.9-.07-4.85-.15-10.16-.29-14.99-.5.05-3.98.19-11.72.3-15.7h0Z"/>
      <path class="cls-9" d="M597.78,308.92c5.58-.18,11.16-.09,16.75.01,0,0,.24,0,.24,0l.11.22c.81,1.58,1.57,3.2,2.37,4.79,0,0-.62,0-.62,0-1.8-.02-3.6-.02-5.39-.08l.3-.28-.06.6-.19-.29c.1.04.3.11.41.15-.06,2.44-.14,4.89-.29,7.33-.14-2.38-.23-4.76-.28-7.14,0,0,.19.27.19.27-.1-.03-.31-.1-.42-.13,0-.15.03-.67.04-.83,0,0,.01-.27.01-.27h.29c1.8-.07,3.6-.07,5.39-.09l-.34.56c-.71-1.4-1.45-2.79-2.14-4.2l.36.23c-5.58-.18-11.16-.37-16.72-.84h0Z"/>
      <path class="cls-9" d="M594.84,293.97c.56,8.36.57,16.75,0,25.11-.57-8.36-.56-16.75,0-25.11h0Z"/>
      <path class="cls-9" d="M498.5,272.53c.16,2.43.24,4.86.3,7.29,0,0-.31-.3-.31-.3,4.1-.28,8.66-.46,12.8-.57,1.42-.03,2.84-.1,4.27-.1l-.31.32c.07-2.65.15-5.3.32-7.95.18,2.75.26,5.49.33,8.24-2.59.19-6.21.31-8.84.45-2.95.07-5.9.21-8.86.21.07-2.53.14-5.06.31-7.59h0Z"/>
      <path class="cls-9" d="M499.9,272.78c.57,2.24.58,4.51,0,6.75-.58-2.24-.57-4.5,0-6.75h0Z"/>
      <path class="cls-9" d="M534.94,270.47c.57,4.79.58,9.58,0,14.37-.58-4.79-.57-9.58,0-14.37h0Z"/>
      <path class="cls-9" d="M541,269.8c.27,3.28.37,6.56.41,9.85,0,0-.33-.4-.33-.4,1.59.28,3.18.58,4.76.9l-.47.39c.02-1.51.06-3.02.13-4.53.05-1.51.14-3.02.27-4.53.13,1.51.22,3.02.27,4.53.08,1.67.12,3.34.14,5.01-1.86-.33-3.72-.66-5.58-1.04.04-3.4.13-6.79.41-10.18h0Z"/>
      <path class="cls-9" d="M543.28,271.67c.57,1.52.58,3.07,0,4.6-.58-1.52-.57-3.07,0-4.6h0Z"/>
      <path class="cls-9" d="M543.28,277.66c.57.56.58,1.18,0,1.74-.58-.56-.57-1.17,0-1.74h0Z"/>
      <path class="cls-9" d="M545.86,291.1c.18-.25.35-.5.54-.74l-.03.08-.05-.53v-.05c.46-.63.95-1.25,1.45-1.86l-.08.22c0-.09-.02-.26-.02-.35,0,0,.13-.12.13-.12l1.05-.94-.11.14.16-.38s.05-.09.08-.12c0,0,1.29-1.29,1.29-1.29l-.12.3c0-.1,0-.34,0-.44.03-.03.92-.93.99-.99,0,0-.1.17-.1.17.03-.09.1-.31.13-.39.08-.05.35-.2.44-.25,0,0-.09.08-.09.08.45-.53.92-1.05,1.38-1.56l-.05.09s.18-.42.18-.42c.61-.61,1.24-1.2,1.9-1.77-.38.57-1.22,1.79-1.44,2.01-.03.08-.09.4-.15.46-.42.58-.84,1.16-1.27,1.72-.04.03-.32.22-.37.25,0,0,.17-.22.17-.22-.02.07-.06.27-.09.33,0,0-.07.08-.07.08l-.85.89.12-.29c0,.11,0,.34,0,.44.03-.02-1.41,1.37-1.43,1.4.22-.35-.09.22-.1.25-.02.05-.04.1-.11.14,0,0-1.12.86-1.12.86l.12-.26c0,.08-.02.27-.02.35,0,0-.08.08-.08.08-.54.54-1.08,1.06-1.64,1.58l.04-.11-.05.53v.06c-.24.21-.49.41-.74.61h0Z"/>
      <path class="cls-9" d="M561.42,295.11c3.76-.1,11.01-.26,14.77-.31.06,5.05-.03,12.19-.03,17.3,0,0,0,.43,0,.43l-.43-.02-14.49-.61h-.33c.13-5.68.32-11.34.51-16.8h0ZM561.42,295.11c.08,5.62.15,11.06.17,16.47l-.32-.34,14.5.44-.43.41.11-8.49c.04-2.83.07-5.66.15-8.49l.3.31c-3.6-.05-10.87-.21-14.47-.3h0Z"/>
      <path class="cls-9" d="M562.76,296.49c1.48-.2,3.48-.29,4.97-.37.05,1.4.08,2.8.08,4.2v.42c-1.78,0-3.56-.04-5.33-.17.05-1.12.14-2.24.28-3.37.13,1.04.22,2.08.27,3.12l-.27-.27c1.54-.1,3.09-.14,4.63-.15l-.42.42c0-1.27.02-2.55.06-3.82l.35.35c-1.37-.07-3.29-.17-4.63-.35h0Z"/>
      <path class="cls-9" d="M569.21,296.56c.15,1.19.23,2.39.3,3.59,0,0-.3-.3-.3-.3,1.66-.11,3.32-.12,4.98-.12l-.41.41c0-1.17.03-2.35.09-3.52l.32.32c-1.34-.07-2.67-.15-4.01-.32,1.34-.17,2.67-.25,4.01-.32l.3-.02c.09,1.42.11,2.85.12,4.27-1.9,0-3.81,0-5.71-.14.07-1.29.15-2.58.31-3.87h0Z"/>
      <path class="cls-9" d="M569.37,301.35c1.59-.08,3.33-.22,5.07-.26.12,2.83.15,6.8.18,9.66,0,0,0,.44,0,.44l-.44-.03-4.67-.28-.34-.02c-.04-3.16.11-6.42.21-9.52h0ZM569.37,301.35c.17,2.67.45,6.56.52,9.17,0,0-.35-.36-.35-.36l4.68.18-.44.42c.02-2.78.05-6.67.17-9.41,0,0,.25.25.25.25-1.54-.04-3.13-.18-4.82-.25h0Z"/>
      <path class="cls-9" d="M562.61,301.35c1.63-.08,3.42-.22,5.2-.26.15,2.75.21,6.62.27,9.41,0,0,0,.44,0,.44l-.44-.02-4.97-.21h-.35c0-3.12.15-6.32.28-9.37h0ZM562.61,301.35c.15,2.62.39,6.43.45,9,0,0-.35-.36-.35-.36l4.97.1-.43.42c0-2.7-.01-6.49.07-9.16,0,0,.25.25.25.25-1.59-.04-3.22-.18-4.96-.25h0Z"/>
      <path class="cls-9" d="M549.85,318.72c14.64.48,29.26,1.51,43.82,3.11-14.64-.47-29.26-1.51-43.82-3.11h0Z"/>
      <path class="cls-9" d="M594.27,321.84c.06.52.1,1.05.14,1.57l-.13-.14c5.82,0,11.65.37,17.4,1.3-1.46.06-2.92.05-4.37.01-4.41-.1-8.81-.44-13.18-1.06.04-.57.08-1.13.15-1.69h0Z"/>
      <path class="cls-9" d="M594.1,324.21c5.83-.13,11.67.32,17.42,1.33-5.83.13-11.67-.32-17.42-1.33h0Z"/>
      <path class="cls-9" d="M593.51,330.13c6.16.17,12.3.63,18.44,1.09,0,0-.45.41-.45.41v-1.09s.38.41.38.41c-6.08-.54-12.16-1.08-18.21-1.9,6.11.17,12.19.62,18.28,1.08,0,0,.38.03.38.03v.39c-.02.31.01,1.25,0,1.55-6.28-.56-12.57-1.11-18.82-1.96h0Z"/>
      <path class="cls-9" d="M593.51,330.62c.06.59.1,1.17.14,1.76l-.12-.14c6.16.17,12.31.71,18.41,1.62,0,0-.16.15-.16.15.05-.66.08-1.31.15-1.97.07.66.11,1.31.15,1.97v.15s-.16,0-.16,0c-6.16-.18-12.31-.73-18.41-1.65,0,0-.13-.02-.13-.02.04-.63.08-1.25.14-1.88h0Z"/>
      <path class="cls-9" d="M593.91,327.11c6.03-.13,12.06.31,18,1.33-6.03.13-12.06-.32-18-1.33h0Z"/>
      <path class="cls-9" d="M594.1,326.33c5.94-.09,11.87.39,17.72,1.44-5.94.09-11.87-.4-17.72-1.44h0Z"/>
      <path class="cls-9" d="M383.47,324.3c5.26-.03,10.52.51,15.66,1.62-5.26.04-10.51-.51-15.66-1.62h0Z"/>
      <path class="cls-9" d="M410.49,317.88c.57,2.84.58,5.69,0,8.52-.58-2.84-.57-5.69,0-8.52h0Z"/>
      <path class="cls-9" d="M400.64,324.25c.84-.71,1.81-.86,2.84-.44-.84.72-1.82.86-2.84.44h0Z"/>
      <path class="cls-9" d="M400.74,325.87c.76-.73,1.67-.91,2.65-.51-.76.74-1.67.91-2.65.51h0Z"/>
      <path class="cls-9" d="M395.07,329.76c-.65.1-1.73.13-2.39.19,1.85-.74,3.83-1.34,5.8-1.59,0,0-.28.35-.28.35.07-.77.15-1.54.36-2.32.23.86.31,1.72.38,2.58l-.31.09c-1.47.41-2.97.71-4.52.8l-.02-.41c.33.09.66.19.98.32h0Z"/>
      <path class="cls-9" d="M399.38,328.85c3.14-.2,6.22.17,9.22,1.11-3.14.2-6.22-.17-9.22-1.11h0Z"/>
      <path class="cls-9" d="M398.51,276.94s.84-.21.84-.21c0,0,3.07-1.24,3.08-1.25,0,0,.63-.15.63-.15h-.02s.22-.28.22-.28c-.01-.02,3.34-.96,3.35-.97,0,0,.76-.11.76-.11l-.04.02.21-.26s.02-.02.03-.02l3.08-1s.93-.11.93-.11c0,0-.07.05-.07.05l.24-.44.02-.03h.04s3.34-1.08,3.34-1.08c0,0,.01,0,.02,0l.65-.11-.09.06.17-.29.02-.04.05-.02s2.99-.94,3-.94c0,0,.02,0,.02,0h.63s-.12.06-.12.06l.28-.39.03-.04c.45-.12,3.63-1.11,4-1.12,0,0-.08.04-.08.04,0,0,.34-.27.33-.26,0,0,3.29-1.08,3.3-1.09.01,0,.03,0,.04,0,0,0,.76-.08.76-.08l-.14.07c.06-.06.21-.27.29-.28,0,0,3.07-1.02,3.07-1.02.01,0,.03,0,.04,0l.68-.1-.11.05c.06-.04.28-.25.34-.26l3.1-.98s.05-.01.07-.01h.61s-.21.14-.21.14c.03-.06.17-.4.2-.45,0,0,.1-.03.1-.03l3.21-.98s.03,0,.04,0c0,0,.61-.09.61-.09l-.15.08.22-.27.05-.05.07-.02,2.71-.83s.03,0,.04,0c0,0,.68-.09.68-.09l-.14.06.38-.35.04-.04.05-.02,3.26-1.06h.04s.04-.01.04-.01h1.93s-.17.06-.17.06l.64-.56.07-.06h.09c9.26-.63,23.16-2.41,32.51-3.33,9.51-1.05,23.22-2.43,32.61-3.57.11.06,26.37,13.7,26.49,13.76,0,0,.21.11.21.11v.23s0,.8,0,.8v.36s-.36.03-.36.03c-26.11,2.08-65.62,4.37-92.12,5.81,16-1.14,53.54-3.54,69.06-4.85,0,0,23.01-1.72,23.01-1.72l-.36.38v-.8s.21.34.21.34l-26.4-13.64c-7.99,1.16-23.19,2.41-32.28,3.45-9.42.88-23.23,2.6-32.54,3.18,0,0,.16-.06.16-.06l-.65.55-.07.06h-.1s-1.93,0-1.93,0c.42-.1-3.29,1.06-3.18,1.03.3-.21-.3.29-.29.3-.06.06-.07.06-.14.06l-.68.08h.04s-2.71.81-2.71.81l.11-.07c-.05.06-.24.28-.29.34,0,0-.09.01-.09.01l-.61.08c.19-.05-3.22.97-3.17.95,0,0,.14-.13.14-.13l-.16.35c-.07.17-.04.14-.21.14.03,0-.82.01-.54-.01,0,0-3.11.96-3.11.96.25-.15-.21.18-.19.18,0,0-.05.04-.05.04h-.06s-.68.1-.68.1c.18-.05-3.08,1.01-3.04,1l.09-.06s-.23.25-.25.28h-.08s-.93.1-.72.07c0,0-3.28,1.03-3.28,1.03l.06-.03-.31.24-.04.03c-.32,0-3.53.94-3.97,1.06,0,0,.08-.06.08-.06l-.28.39-.05.06h-.08s-.63,0-.63,0c.18-.04-2.97.89-2.95.89,0,0,.07-.06.07-.06l-.17.29-.03.05h-.06s-.65.11-.65.11c.06-.02-3.34,1.02-3.33,1.02l.06-.05-.24.43-.02.04h-.05s-.92.1-.92.1c.14-.05-3.24,1.02-3.05.94,0,0-.21.25-.21.25l-.02.02h-.02s-.76.11-.76.11c.05-.02-3.41.94-3.31.9,0,0-.23.29-.23.29h0s-.01.01-.01.01c0,0-.65.15-.63.14,0,0-3.09,1.2-3.09,1.2,0,0-.84.2-.84.2h0Z"/>
      <path class="cls-9" d="M361.95,289.31c1.54-.25,3.88-.72,5.06-.83,0,0,.82-.8.82-.8l.06-.06h.09s2.22.02,2.22.02c-.34.06,3.97-.91,3.86-.89-.47.24,1.14-.76,1.05-.72,0,0,.09-.06.09-.06h.12s.9.04.9.04h-.07s4.59-.67,4.59-.67l-.17.07c.09-.07,1.19-.83,1.24-.87,0,0,.16.03.16.03l1.09.19c.89-.24,3.33-.61,4.75-.87,0,0-.24.14-.24.14.09-.11.53-.62.61-.71h.19s1.05,0,1.08,0c0,0,.02,0,.02,0l.73.08c-.56.06,4.54-.83,4.41-.82,0,0-.17.08-.17.08l.68-.58.13-.11.17.03.96.19h-.13s4.99-.78,4.99-.78c-.41.21.99-.64.93-.62,0,0,.12-.07.12-.07l.12.06.53.26c.83-.21,3.73-.53,4.84-.63,0,0,.53-.69.53-.69l.02-.02h.02s1.52-.18,1.52-.18l-1.5.3.04-.02-.49.72c-1.67.38-3.41.66-5.11.97,0,0-.07-.03-.07-.03l-.54-.24.23-.02-1,.69-.04.03h-.06s-4.96.97-4.96.97h-.06s-.07,0-.07,0l-.96-.18.3-.08c-.05.04-.72.63-.75.65,0,0-.1.02-.1.02l-4.51.88s-.08.01-.11,0l-.73-.07h.04s-1.06,0-1.06,0l.31-.14c-.07.08-.51.62-.57.68,0,0-.15.03-.15.03-1.65.31-3.31.58-4.97.86h-.07s-1.08-.21-1.08-.21l.29-.06-1.12.77-.08.05h-.09s-4.62.63-4.64.63c0,0-.03,0-.03,0l-.9-.06.2-.05-1.18.72-.05.03h-.05s-3.97.77-3.98.77c-.02,0-2.21-.1-2.24-.1,0,0,.15-.05.15-.05l-.87.75c-1.73.28-3.54.38-5.29.58h0Z"/>
      <path class="cls-9" d="M443.27,320.95c.57,3.22.58,6.45,0,9.67-.58-3.22-.57-6.45,0-9.67h0Z"/>
      <path class="cls-9" d="M410.7,327.34c10.77.7,21.51,1.96,32.15,3.79-10.77-.7-21.51-1.97-32.15-3.79h0Z"/>
      <path class="cls-9" d="M410.1,327.73c10.79,1.05,22.5,2.35,33.22,3.64,9.59-2.3,21.9-4.94,32.11-7.15,0,0,10.78-2.22,10.78-2.22l-10.69,2.66c-10.42,2.51-21.84,5.2-32.24,7.51-10.73-1.32-22.45-2.87-33.19-4.44h0Z"/>
      <path class="cls-9" d="M443.41,331.21c14.44-3.8,29.03-7.06,43.72-9.75-14.44,3.8-29.03,7.05-43.72,9.75h0Z"/>
      <path class="cls-9" d="M506.35,323.21c-12.82,6.38-30.98,15.42-43.67,21.56,0,0,.23-.37.23-.37v1.26s-.55-.39-.55-.39c12.91-4.69,31.05-11.29,43.85-15.7,0,0-.07.1-.07.1l.21-6.46h0ZM506.35,323.21v6.46s0,.07,0,.07c-7.26,2.81-14.56,5.51-21.85,8.26l-21.85,8.05-.56.21c0-.36,0-1.47,0-1.86,0,0,0-.26,0-.26l.23-.11c12.75-6.17,31.04-14.73,44.02-20.82h0Z"/>
      <path class="cls-9" d="M506.97,329.6c9.43,1.03,18.84,2.28,28.24,3.57,0,0-.46.4-.46.4-.02-2.88-.02-5.77,0-8.65l.36.4c-9.34-1.05-18.66-2.16-27.97-3.47,9.37.74,18.71,1.68,28.06,2.67,0,0,.35.04.35.04v.36c.03,3.04.03,6.07,0,9.11-9.54-1.38-19.08-2.79-28.58-4.42h0Z"/>
      <path class="cls-9" d="M535.66,324.86c.79-.91,1.82-1.31,3.03-1.14-.79.92-1.82,1.3-3.03,1.14h0Z"/>
      <path class="cls-9" d="M535.35,324.35c.8-.89,1.82-1.26,3-1.06-.8.9-1.82,1.25-3,1.06h0Z"/>
      <path class="cls-9" d="M533.97,324.12c-8.53-.33-17.04-1.21-25.46-2.66,8.53.32,17.04,1.22,25.46,2.66h0Z"/>
      <path class="cls-9" d="M488.74,321.06c1.01-1.27,2.34-2.07,3.94-2.35-1.01,1.28-2.34,2.06-3.94,2.35h0Z"/>
      <path class="cls-9" d="M535.66,333.35c2.75-1.84,8.29-5.49,11.07-7.27,0,0,.08-.05.08-.05h.11c15.16,1.16,30.3,2.51,45.39,4.32-11.38-.64-22.75-1.57-34.1-2.62-3.48-.4-8.39-.64-11.16-1.14-2.81,1.71-8.54,5.11-11.39,6.76h0Z"/>
      <path class="cls-9" d="M444.86,262.05c22.25-2.8,46.79-5.28,69.15-6.98-22.25,2.8-46.79,5.28-69.15,6.98h0Z"/>
      <path class="cls-9" d="M441.55,263.52c24.54-3,52.14-5.76,76.78-7.67-24.54,3-52.14,5.75-76.78,7.67h0Z"/>
      <path class="cls-9" d="M437.82,264.8c26.27-3.02,55.82-5.81,82.19-7.74-26.27,3.03-55.82,5.81-82.19,7.74h0Z"/>
      <path class="cls-9" d="M522.5,258.12c-28.39,3.15-60.3,6.07-88.79,8.13,28.39-3.15,60.3-6.07,88.79-8.13h0Z"/>
      <path class="cls-9" d="M427.84,267.87c31.04-3.29,65.92-6.37,97.05-8.57-31.04,3.29-65.92,6.37-97.05,8.57h0Z"/>
      <path class="cls-9" d="M428.49,268.99c30.19-3.1,64.11-5.97,94.39-7.97-30.19,3.1-64.11,5.96-94.39,7.97h0Z"/>
      <path class="cls-9" d="M419.46,271.01c35.24-3.47,74.82-6.76,110.15-9.13-35.24,3.47-74.82,6.75-110.15,9.13h0Z"/>
      <path class="cls-9" d="M416.36,272.18c3.61-.81,7.26-1.04,10.95-.7-3.61.81-7.26,1.04-10.95.7h0Z"/>
      <path class="cls-9" d="M434.3,270.76c31.1-3,66.04-5.76,97.23-7.66-31.1,3-66.04,5.75-97.23,7.66h0Z"/>
      <path class="cls-9" d="M438.9,271.94c30.27-2.94,64.28-5.62,94.64-7.47-30.27,2.94-64.28,5.62-94.64,7.47h0Z"/>
      <path class="cls-9" d="M443.67,272.79c21.94-2.07,46.13-3.76,68.15-4.73-21.94,2.08-46.13,3.75-68.15,4.73h0Z"/>
      <path class="cls-9" d="M413.1,273.73c4.17-.88,8.4-1.2,12.65-.93-4.17.89-8.4,1.19-12.65.93h0Z"/>
      <path class="cls-9" d="M409.85,275.24c3.95-.83,7.95-1.09,11.98-.76-3.95.83-7.95,1.08-11.98.76h0Z"/>
      <path class="cls-9" d="M493.99,314.76c1.37-.57,2.77-.58,4.15,0-1.37.58-2.77.57-4.15,0h0Z"/>
      <path class="cls-9" d="M498.81,294.99c.57,4.98.58,10.02,0,15.01-.58-4.98-.57-10.02,0-15.01h0Z"/>
      <path class="cls-9" d="M500.59,295.24c.57,4.22.58,8.45,0,12.66-.58-4.22-.57-8.45,0-12.66h0Z"/>
      <path class="cls-9" d="M502.2,294.84c.57,3.04.58,6.09,0,9.13-.58-3.04-.57-6.09,0-9.13h0Z"/>
      <path class="cls-9" d="M503.63,306.29c-.57-3.81-.58-7.64,0-11.45.58,3.81.57,7.64,0,11.45h0Z"/>
      <path class="cls-9" d="M506.35,294.63c.57,2.5.58,5.02,0,7.52-.58-2.5-.57-5.02,0-7.52h0Z"/>
      <path class="cls-9" d="M505.12,296.55c.57,2.47.58,4.96,0,7.43-.58-2.47-.57-4.96,0-7.43h0Z"/>
      <path class="cls-9" d="M501.79,313.29l-.06-1.57v-.03s.02-.02.02-.02l.25-.23-.03.06-.03-1.07.02.06-.26-.33-.02-.03v-.04c-.01-.1,0-.41-.02-.5,0,0,.14,0,.14,0l1.97-.06-.19.19-.03-1.07.22.22c-.13,0-1.78.03-1.87.03,0-.15-.03-1.05-.02-1.22,0,0,0-.26,0-.26h.27s2.74-.06,2.74-.06l-.32.32-.02-1.14.34.34c-.24,0-1.08.02-1.31.02,0-.23,0-1.1,0-1.35,0,0,0-.36,0-.36h.36s2.33-.02,2.33-.02l-.38.38v-.96s.38.38.38.38c-.27,0-1.33,0-1.59,0,0-.36,0-.84,0-1.2.25,0,1.32,0,1.6,0l-.4.4c0-.23,0-.7,0-.93.26,0,1.49,0,1.77-.01l-.41.41v-1.04s.41.42.41.42c-.29,0-1.15,0-1.43,0,0-.27,0-1.17,0-1.45,0,0,0-.41,0-.41h.41s2.26.02,2.26.02l-.4.4v-.74s.4.39.4.39h-1.38s-.38-.01-.38-.01c0-.23,0-.72,0-.95,0,0,0-.21,0-.21l.18-.11c.06-.03.5-.31.55-.34,0,0,.11,0,.11,0h2.21s-.36.38-.36.38v-1.07s.36.35.36.35c-.25,0-.97-.03-1.21-.02,0-.39.02-1.06.03-1.45.14,0,2.27.04,2.48.05,0,0-.28.28-.28.28l.02-1.07.26.26c-.19,0-.78-.01-.96-.02,0-.32.02-1.01.02-1.32.09,0,1.8.04,1.95.04l-.2.2.02-.73.18.18-1.72-.05h-.13c0-.17.02-.78.03-.94,0,0,.1,0,.1,0l2.14.08-.03.03.03-.62.03.62s0,.02-.03.03l-2.14.08.1-.1.02.71-.12-.12c.08-.02,1.9-.04,1.89-.06,0,0,0,.18,0,.18.02.16.01.78.03.92,0,0-.21,0-.21,0l-1.72.04.24-.24.02.84-.25-.25h.71s.26-.02.26-.02v.27c.02.22.02,1.15.03,1.35-.07.02-2.29.03-2.45.05,0,0,.33-.33.33-.33v.79s-.33-.34-.33-.34h.86s.35-.02.35-.02v.36c0,.27,0,1.17.01,1.43,0,0-.36,0-.36,0h-2.21s.2-.04.2-.04l-.45.28.18-.32v.57s-.38-.38-.38-.38c.28,0,1.51,0,1.76-.01,0,0,0,.39,0,.39,0,.26.01.88,0,1.13,0,0-.4,0-.4,0h-2.26s.41-.4.41-.4v1.04s-.41-.42-.41-.42c.29,0,1.15,0,1.43,0,0,.27,0,1.17,0,1.45,0,0,0,.41,0,.41-.27,0-1.49,0-1.78-.01l.4-.4c0,.23,0,.7,0,.93-.27,0-1.32,0-1.6,0l.39-.39v.42s-.39-.39-.39-.39c.28,0,1.33,0,1.59,0v.38c0,.26-.01,1.09-.01,1.34-.18,0-2.45-.01-2.7-.02,0,0,.36-.36.36-.36v.99s-.36-.36-.36-.36c.26,0,1.07.02,1.31.02,0,.24-.02,1.22-.03,1.47,0,0,0,.32,0,.32h-.31s-2.74-.06-2.74-.06l.27-.27-.02.97-.25-.25c.14,0,1.77.04,1.85.03,0,0,0,.22,0,.22,0,.09-.03,1.19-.03,1.26,0,0-.19,0-.19,0l-1.97-.06.13-.13v.38s-.04-.07-.04-.07l.24.35.02.03v.03s-.03,1.07-.03,1.07v.04s-.03.02-.03.02l-.26.21c.06-.24-.06,1.56-.04,1.53h0Z"/>
      <path class="cls-9" d="M493.32,316.84c1.2-.54,2.42-.52,3.6.09-1.2.55-2.42.51-3.6-.09h0Z"/>
      <path class="cls-9" d="M493.32,314.84c1.27-.57,2.56-.58,3.83,0-1.27.58-2.56.57-3.83,0h0Z"/>
      <path class="cls-9" d="M497.53,300.4c-.92,2.08-2.3,3.82-4.13,5.18.92-2.08,2.31-3.82,4.13-5.18h0Z"/>
      <path class="cls-9" d="M493.02,307.74c1.34-2.73,3.15-5.13,5.42-7.17-1.34,2.74-3.16,5.13-5.42,7.17h0Z"/>
      <path class="cls-9" d="M617.1,293.43c.57,4.78.58,9.57,0,14.35-.58-4.78-.58-9.57,0-14.35h0Z"/>
      <path class="cls-9" d="M618.2,293.43c.57,5.02.58,10.1,0,15.12-.58-5.02-.57-10.1,0-15.12h0Z"/>
      <path class="cls-9" d="M620.27,293.43c.57,6.17.58,12.4,0,18.57-.58-6.17-.57-12.4,0-18.57h0Z"/>
      <path class="cls-9" d="M621.03,293.58c.57,6.45.58,12.95,0,19.41-.58-6.45-.57-12.95,0-19.41h0Z"/>
      <path class="cls-9" d="M614.64,293.58c.57,4.78.58,9.57,0,14.35-.58-4.78-.57-9.57,0-14.35h0Z"/>
      <path class="cls-9" d="M363.67,289.1c-2.49.69-5.01,1.14-7.56,1.52,0,0-.1-.04-.1-.04l-1.51-.59.46-.13c-.07.08-.76.94-.81.99-.55.06-1.1.09-1.66.12l.27-.3c-.05.79-.08,1.58-.17,2.37l-.13-.13c1.44.12,1.07.17-.11.27-.11-.92-.14-1.84-.21-2.76.59-.11,1.18-.22,1.78-.3l-.25.14c.13-.18.71-.98.83-1.14l.29.11,1.52.57c1.36-.37,5.16-.63,7.36-.7h0Z"/>
      <path class="cls-9" d="M355.33,291.49c2.35-.97,4.82-1.38,7.36-1.22-2.35.98-4.82,1.38-7.36,1.22h0Z"/>
      <path class="cls-9" d="M419.69,280.28c5.93-.82,11.92-1.08,17.9-.76-5.93.83-11.92,1.08-17.9.76h0Z"/>
      <path class="cls-9" d="M412.2,281.77c8.87-.91,17.79-1.27,26.7-1.05-8.87.92-17.79,1.27-26.7,1.05h0Z"/>
      <path class="cls-9" d="M404.46,283.3c10.86-1,21.76-1.44,32.67-1.31-10.86,1-21.76,1.44-32.67,1.31h0Z"/>
      <path class="cls-9" d="M401.92,284.94c12.13-1.02,24.3-1.49,36.47-1.38-12.13,1.03-24.3,1.48-36.47,1.38h0Z"/>
      <path class="cls-9" d="M386.57,286.47c16.99-.98,34-1.41,51.02-1.26-16.99.99-34,1.4-51.02,1.26h0Z"/>
      <path class="cls-9" d="M378.62,288.17c19.01-.97,39.94-1.44,58.97-1.31-19.01.98-39.94,1.44-58.97,1.31h0Z"/>
      <path class="cls-9" d="M371.4,289.82c21.19-.91,44.52-1.31,65.73-1.11-21.19.91-44.52,1.31-65.73,1.11h0Z"/>
      <path class="cls-9" d="M435.87,274.59c8.4.71,17.59,1.88,25.9,3.32-8.4-.7-17.59-1.88-25.9-3.32h0Z"/>
      <path class="cls-9" d="M439.56,276.25c9.19.52,18.36,1.59,27.42,3.23-9.2-.51-18.36-1.6-27.42-3.23h0Z"/>
      <path class="cls-9" d="M446.19,278.1c8.13.34,16.23,1.24,24.23,2.72-8.13-.33-16.23-1.25-24.23-2.72h0Z"/>
      <path class="cls-9" d="M446.56,279.46c9.45.37,18.87,1.3,28.21,2.79-9.45-.36-18.87-1.3-28.21-2.79h0Z"/>
      <path class="cls-9" d="M446.47,280.65c10.58.42,21.13,1.39,31.6,2.93-10.58-.41-21.13-1.39-31.6-2.93h0Z"/>
      <path class="cls-9" d="M446.47,282.11c11.42.32,22.83,1.2,34.17,2.65-11.42-.32-22.83-1.21-34.17-2.65h0Z"/>
      <path class="cls-9" d="M446.47,283.44c11.52.26,23.02,1.07,34.45,2.46-11.52-.25-23.02-1.08-34.45-2.46h0Z"/>
      <path class="cls-9" d="M446.56,284.94c13.54.23,27.07,1.03,40.54,2.39-13.54-.23-27.06-1.03-40.54-2.39h0Z"/>
      <path class="cls-9" d="M446.47,288.7c16.46-.07,32.91.43,49.33,1.49-16.46.07-32.91-.43-49.33-1.49h0Z"/>
      <path class="cls-9" d="M446.22,286.6c15.21.19,30.42.94,45.57,2.25-15.21-.18-30.42-.94-45.57-2.25h0Z"/>
      <path class="cls-9" d="M555.77,280.35c13-.99,26.04-1.42,39.07-1.27-13,.99-26.04,1.41-39.07,1.27h0Z"/>
      <path class="cls-9" d="M555.77,281.33c13-1.02,26.03-1.48,39.07-1.37-13,1.02-26.03,1.48-39.07,1.37h0Z"/>
      <path class="cls-9" d="M554.92,282.42c12.78-.93,25.61-1.29,38.42-1.09-12.78.93-25.61,1.29-38.42,1.09h0Z"/>
      <path class="cls-9" d="M553.23,283.43c14.05-.97,28.14-1.39,42.23-1.24-14.05.98-28.14,1.39-42.23,1.24h0Z"/>
      <path class="cls-9" d="M553.23,284.52c14.99-.93,30.01-1.29,45.02-1.09-14.99.93-30.01,1.29-45.02,1.09h0Z"/>
      <path class="cls-9" d="M553.23,285.53c17.07-.9,34.17-1.23,51.26-1-17.07.9-34.17,1.23-51.26,1h0Z"/>
      <path class="cls-9" d="M609.34,285.68c-18.78.77-38.51.98-57.32.63,18.8-.76,38.53-.99,57.32-.63h0Z"/>
      <path class="cls-9" d="M611.71,286.75c-19.61.74-41.2.95-60.82.58,19.61-.74,41.2-.94,60.82-.58h0Z"/>
      <path class="cls-9" d="M548.8,290.24c24.05-.72,51.04-.91,75.09-.53-24.05.72-51.04.91-75.09.53h0Z"/>
      <path class="cls-9" d="M438.9,289.56c.69-.73,1.48-1.28,2.3-1.79h.12c.34-.01.68-.02,1.02,0,.45.25.89.53,1.31.83,2.5,1.77-.58.46-1.62-.07.53.1-.46.04-.71.05,0,0,.2-.05.2-.05-.83.43-1.68.82-2.63,1.03h0Z"/>
      <path class="cls-9" d="M438.81,288.61c.65-.64,1.37-1.14,2.12-1.6.51-.03,1.01-.05,1.52-.03l.08.04c3.43,1.89,3.18,2.39-.37.74,0,0,.19.04.19.04-.43.01-.86,0-1.29-.02l.19-.05c-.77.36-1.57.68-2.43.88h0Z"/>
      <path class="cls-9" d="M439.34,286.4c.61-.66,1.31-1.14,2.04-1.58h.12c.28,0,.57-.03.85,0,.87.45,1.71.95,2.45,1.67-.99-.14-1.88-.49-2.74-.89.49.09-.39.03-.56.03,0,0,.19-.05.19-.05-.74.36-1.5.67-2.35.83h0Z"/>
      <path class="cls-9" d="M439.23,285.71c.61-.66,1.3-1.17,2.02-1.64h.12c.38,0,.76-.03,1.14,0,.86.51,1.7,1.07,2.42,1.83-1-.21-1.88-.61-2.74-1.07l.2.05c-.34.02-.68,0-1.02-.01l.2-.05c-.74.37-1.5.7-2.34.89h0Z"/>
      <path class="cls-9" d="M439.84,283.56c.52-.67,1.17-1.18,1.88-1.63,0,0,.13,0,.13,0,.25-.01.49-.01.74,0,.71.41,1.4.86,1.97,1.52-.84-.11-1.58-.41-2.29-.75.47.09-.23.05-.43.05,0,0,.21-.06.21-.06-.7.4-1.41.72-2.22.88h0Z"/>
      <path class="cls-9" d="M439.72,282.94c.58-.71,1.27-1.23,2-1.71h.13c.3-.02.59-.02.89,0,.74.44,1.45.93,2.06,1.6-.87-.15-1.63-.47-2.38-.84.5.09-.3.05-.57.05,0,0,.21-.06.21-.06-.73.41-1.48.77-2.34.96h0Z"/>
      <path class="cls-9" d="M440.53,278.56c.48-.51,1.02-.91,1.58-1.28.32-.02.65,0,.98,0h.09c.49.35.96.73,1.38,1.19-.57-.17-1.11-.42-1.61-.7l.14.04c-.3,0-.59.02-.89,0l.14-.04c-.57.32-1.16.6-1.81.78h0Z"/>
      <path class="cls-9" d="M440.3,279.49c.45-.67,1.03-1.14,1.64-1.58.39-.02.79-.02,1.18.01.09.01.14-.01.21.06,1.61,1.33,1.43,1.62-.43.65,0,0,.21.06.21.06-.35.03-.69.04-1.04.02l.23-.07c-.61.36-1.25.68-2,.83h0Z"/>
      <path class="cls-9" d="M440.2,281.02c.44-.66.98-1.17,1.56-1.65.37,0,.74-.03,1.11-.01h.17c.61.55,1.19,1.13,1.63,1.88-.78-.27-1.43-.69-2.05-1.16l.26.09c-.32.02-.64,0-.96,0l.24-.08c-.6.38-1.22.72-1.94.92h0Z"/>
      <path class="cls-9" d="M440.04,280.51c.49-.69,1.09-1.21,1.72-1.7.46-.02.92-.03,1.38,0,2.01,1.86,2.06,2.54-.43.71,0,0,.26.09.26.09-.36.02-.71.01-1.07,0l.23-.07c-.64.4-1.32.76-2.09.98h0Z"/>
      <path class="cls-9" d="M612.74,285.13c-.35-.53-.17-.84.47-.8.35.53.17.84-.47.8h0Z"/>
      <path class="cls-9" d="M613.94,285.23c-.19-.61.07-.89.69-.7.19.61-.08.88-.69.7h0Z"/>
      <path class="cls-9" d="M608.11,284.07c-.23-.6.01-.88.63-.72.23.6-.02.87-.63.72h0Z"/>
      <path class="cls-9" d="M609.29,284.25c-.1-.65.22-.91.83-.67.1.65-.22.91-.83.67h0Z"/>
      <path class="cls-9" d="M603.88,283.14c-.26-.56-.05-.81.54-.62.27.56.05.81-.54.62h0Z"/>
      <path class="cls-9" d="M604.99,283.35c-.09-.64.23-.89.83-.63.09.65-.23.89-.83.63h0Z"/>
      <path class="cls-9" d="M367.14,288.82c.57.17.57.39,0,.56-.57-.17-.57-.39,0-.56h0Z"/>
      <path class="cls-9" d="M368.71,288.02c.57.24.57.56,0,.8-.57-.24-.57-.56,0-.8h0Z"/>
      <path class="cls-9" d="M374.21,287.25c.57.23.57.54,0,.77-.57-.23-.57-.54,0-.77h0Z"/>
      <path class="cls-9" d="M375.74,286.54c.55.32.54.69-.05.94-.55-.32-.53-.69.05-.94h0Z"/>
      <path class="cls-9" d="M381.24,285.64c.57.25.57.58,0,.83-.57-.25-.57-.58,0-.83h0Z"/>
      <path class="cls-9" d="M382.57,285.22c.59.25.62.61.07.94-.59-.24-.61-.61-.07-.94h0Z"/>
      <path class="cls-9" d="M388.07,284.42c.55.26.53.55-.05.72-.55-.26-.53-.55.05-.72h0Z"/>
      <path class="cls-9" d="M389.4,284.01c.54.31.51.65-.08.84-.54-.31-.5-.64.08-.84h0Z"/>
      <path class="cls-9" d="M394.65,283.2c.58.18.6.47.04.71-.58-.18-.59-.46-.04-.71h0Z"/>
      <path class="cls-9" d="M396.06,282.72c.54.31.51.63-.08.84-.54-.31-.51-.63.08-.84h0Z"/>
      <path class="cls-9" d="M406.5,273.54c.5-.29.63-.17.32.33-.5.3-.63.17-.32-.33h0Z"/>
      <path class="cls-9" d="M406.97,273.06c.58-.19.78.03.5.58-.58.2-.78-.04-.5-.58h0Z"/>
      <path class="cls-9" d="M410.65,272.1c.55-.28.78-.08.6.5-.55.28-.78.08-.6-.5h0Z"/>
      <path class="cls-9" d="M411.37,271.77c.49-.32.64-.19.39.34-.49.33-.64.19-.39-.34h0Z"/>
      <path class="cls-9" d="M414.92,270.62c.52-.28.67-.13.39.39-.52.28-.67.13-.39-.39h0Z"/>
      <path class="cls-9" d="M415.53,270.26c.51-.3.68-.15.42.38-.51.31-.67.15-.42-.38h0Z"/>
      <path class="cls-9" d="M419.05,269.3c.55-.22.68-.06.34.43-.55.22-.68.05-.34-.43h0Z"/>
      <path class="cls-9" d="M419.65,269.01c.54-.23.61-.2.27.3-.49.3-.66.13-.27-.3h0Z"/>
      <path class="cls-9" d="M423.01,267.99c.53-.25.65-.11.3.36-.53.25-.65.11-.3-.36h0Z"/>
      <path class="cls-9" d="M423.7,267.7c.54-.23.67-.07.32.41-.54.23-.67.07-.32-.41h0Z"/>
      <path class="cls-9" d="M427.37,266.59c.54-.23.66-.08.31.39-.54.23-.66.08-.31-.39h0Z"/>
      <path class="cls-9" d="M427.95,266.19c.55-.23.71-.05.4.46-.55.23-.71.04-.4-.46h0Z"/>
      <path class="cls-9" d="M431.53,265.22c.25,0,.37.15.32.4-.25,0-.36-.15-.32-.4h0Z"/>
      <path class="cls-9" d="M432.25,264.93c.24.03.33.17.26.4-.24-.03-.33-.17-.26-.4h0Z"/>
      <path class="cls-9" d="M435.51,263.97c.23.08.29.25.17.46-.23-.08-.29-.25-.17-.46h0Z"/>
      <path class="cls-9" d="M436.11,263.65c.22.1.26.26.12.45-.22-.1-.26-.26-.12-.45h0Z"/>
      <path class="cls-9" d="M439.17,262.79c.23,0,.33.12.26.34-.23,0-.33-.12-.26-.34h0Z"/>
      <path class="cls-9" d="M439.72,262.53c.25-.04.4.07.41.33-.25.04-.4-.08-.41-.33h0Z"/>
      <path class="cls-9" d="M442.86,261.67c.22-.1.39-.03.45.2-.22.11-.39.03-.45-.2h0Z"/>
      <path class="cls-9" d="M443.56,261.26c.23-.1.4-.03.48.21-.23.11-.4.03-.48-.21h0Z"/>
      <path class="cls-9" d="M378.79,330.49c-12.77.56-25.56.57-38.33,0,12.77-.57,25.56-.56,38.33,0h0Z"/>
      <path class="cls-9" d="M380.9,294.03c.57,6.57.58,13.18,0,19.75-.58-6.57-.57-13.18,0-19.75h0Z"/>
      <path class="cls-9" d="M539.95,323.21c2.01-1.57,4.27-2.64,6.77-3.16-2.01,1.58-4.27,2.63-6.77,3.16h0Z"/>
      <path class="cls-9" d="M384.3,294.84c.57,5.64.58,11.32,0,16.96-.58-5.64-.57-11.32,0-16.96h0Z"/>
      <path class="cls-9" d="M439.51,293.85c.57,7.9.58,15.84,0,23.74-.58-7.9-.57-15.84,0-23.74h0Z"/>
      <path class="cls-9" d="M444.8,293.85c.57,7.9.58,15.84,0,23.74-.58-7.9-.57-15.84,0-23.74h0Z"/>
      <path class="cls-9" d="M554.52,274.63c.38,1.45.38,2.99,0,4.44-.38-1.45-.38-2.99,0-4.44h0Z"/>
      <path class="cls-9" d="M635.26,290.66c.63-.46,1.19-.35,1.58.32-.63.46-1.18.34-1.58-.32h0Z"/>
      <rect class="cls-1" x="1.68" y="364.17" width="1009.49" height="169.99" rx="84.99" ry="84.99"/>
      <g>
        <path class="cls-6" d="M123.23,495.24c2.73,0,5.29-.4,7.69-1.2,2.4-.8,4.47-1.93,6.21-3.39,1.74-1.46,3.06-3.18,3.95-5.15.89-1.98,1.2-4.14.92-6.49-.19-1.69-.14-3.22.14-4.59.28-1.36.84-2.37,1.69-3.03l6.78-4.8c.47-.38,1.03-.56,1.69-.56.47,0,.87.17,1.2.49.33.33.45.68.35,1.06-.1,4.61-.85,8.87-2.26,12.77-1.41,3.91-3.44,7.27-6.07,10.09-2.64,2.82-5.84,5.03-9.6,6.63-3.77,1.6-8,2.4-12.7,2.4-6.49,0-12.44-1.25-17.85-3.74-5.41-2.49-10.05-5.95-13.91-10.37-3.86-4.42-6.87-9.71-9.03-15.88-2.17-6.16-3.25-12.96-3.25-20.4,0-5.93,1.01-11.88,3.04-17.85,2.02-5.97,4.89-11.36,8.61-16.16,3.72-4.8,8.21-8.7,13.48-11.72,5.27-3.01,11.15-4.52,17.64-4.52,5.74,0,11.06.97,15.95,2.89,4.89,1.93,8.85,4.64,11.86,8.12,1.03,1.22,2.07,2.73,3.11,4.52,1.03,1.79,1.86,3.62,2.47,5.5.61,1.88.89,3.72.85,5.5-.05,1.79-.59,3.29-1.62,4.52l-13.83,15.67-3.25-2.12c1.69-6.02,2.59-11.52,2.68-16.51.09-4.99-.59-9.25-2.05-12.77-1.46-3.53-3.6-6.26-6.42-8.19-2.82-1.93-6.26-2.89-10.3-2.89-15.34,0-22.91,15.34-22.72,46.01.09,15.81,2.18,27.45,6.28,34.93s10.18,11.22,18.28,11.22Z"/>
        <path class="cls-6" d="M192.67,417.9l-7.48-18.07h19.62l41.07,98.8h-19.62l-14.26-34.3h-32.75l-13.13,34.3h-4.23l30.77-80.73ZM210.31,460.24l-15.39-36.98-14.11,36.98h29.5Z"/>
        <path class="cls-6" d="M295.7,470.12l29.22-70.29h4.24l-41.07,98.8-42.2-98.8h19.76l30.06,70.29Z"/>
        <path class="cls-6" d="M401.14,467.3v19.76c0,3.2-1.13,5.93-3.39,8.19-2.26,2.26-4.99,3.39-8.18,3.39h-51.94v-98.8h51.94c3.2,0,5.93,1.13,8.18,3.39,2.26,2.26,3.39,4.99,3.39,8.19v19.76h-4.09c-1.41-8.84-4.42-15.57-9.03-20.18-4.61-4.61-11.34-6.92-20.18-6.92h-10.59v43.33h25.27v4.23h-25.27v42.77h10.73c8.75,0,15.41-2.31,19.97-6.92,4.56-4.61,7.6-11.34,9.1-20.18h4.09Z"/>
        <path class="cls-6" d="M495.98,495.24c2.73,0,5.29-.4,7.69-1.2,2.4-.8,4.47-1.93,6.21-3.39,1.74-1.46,3.06-3.18,3.95-5.15.89-1.98,1.2-4.14.92-6.49-.19-1.69-.14-3.22.14-4.59.28-1.36.84-2.37,1.69-3.03l6.78-4.8c.47-.38,1.03-.56,1.69-.56.47,0,.87.17,1.2.49.33.33.45.68.35,1.06-.1,4.61-.85,8.87-2.26,12.77-1.41,3.91-3.44,7.27-6.07,10.09-2.64,2.82-5.84,5.03-9.6,6.63-3.77,1.6-8,2.4-12.7,2.4-6.49,0-12.44-1.25-17.85-3.74-5.41-2.49-10.05-5.95-13.91-10.37-3.86-4.42-6.87-9.71-9.03-15.88-2.17-6.16-3.25-12.96-3.25-20.4,0-5.93,1.01-11.88,3.04-17.85,2.02-5.97,4.89-11.36,8.61-16.16,3.72-4.8,8.21-8.7,13.48-11.72,5.27-3.01,11.15-4.52,17.64-4.52,5.74,0,11.06.97,15.95,2.89,4.89,1.93,8.85,4.64,11.86,8.12,1.03,1.22,2.07,2.73,3.11,4.52,1.03,1.79,1.86,3.62,2.47,5.5.61,1.88.89,3.72.85,5.5-.05,1.79-.59,3.29-1.62,4.52l-13.83,15.67-3.25-2.12c1.69-6.02,2.59-11.52,2.68-16.51.09-4.99-.59-9.25-2.05-12.77-1.46-3.53-3.6-6.26-6.42-8.19-2.82-1.93-6.26-2.89-10.3-2.89-15.34,0-22.91,15.34-22.72,46.01.09,15.81,2.18,27.45,6.28,34.93,4.09,7.48,10.18,11.22,18.28,11.22Z"/>
        <path class="cls-6" d="M565.42,417.9l-7.48-18.07h19.62l41.07,98.8h-19.62l-14.26-34.3h-32.75l-13.13,34.3h-4.23l30.77-80.73ZM583.06,460.24l-15.39-36.98-14.11,36.98h29.5Z"/>
        <path class="cls-6" d="M640.23,421c.56,2.73,2.02,5.1,4.37,7.13s5.15,3.9,8.4,5.64c3.25,1.74,6.73,3.48,10.44,5.22,3.72,1.74,7.27,3.76,10.66,6.07,3.39,2.31,6.4,4.99,9.04,8.05,2.63,3.06,4.47,6.75,5.5,11.08,1.13,4.8,1.18,9.29.14,13.48-1.04,4.19-2.94,7.86-5.72,11.01-2.78,3.15-6.35,5.67-10.73,7.55-4.38,1.88-9.34,2.92-14.89,3.11-9.41.28-16.82-.73-22.23-3.04-5.41-2.3-8.35-5.72-8.82-10.23v-19.2h4.38c1.6,9.41,4.63,16.47,9.1,21.17,4.47,4.71,10.33,7.06,17.57,7.06,3.48,0,6.47-.59,8.96-1.76,2.49-1.17,4.49-2.77,6-4.8,1.5-2.02,2.49-4.45,2.96-7.27.47-2.82.33-5.88-.43-9.17-.56-2.92-2.14-5.43-4.73-7.55-2.59-2.12-5.62-4.12-9.1-6-3.48-1.88-7.22-3.74-11.22-5.58-4-1.83-7.76-3.95-11.29-6.35-3.53-2.4-6.59-5.17-9.17-8.33-2.59-3.15-4.21-6.94-4.87-11.36-.56-3.86-.16-7.48,1.2-10.87,1.37-3.39,3.53-6.35,6.49-8.89s6.59-4.54,10.87-6c4.28-1.46,9.05-2.19,14.32-2.19,9.41,0,16.52.99,21.31,2.96,4.8,1.98,7.71,5.08,8.75,9.31v19.2h-4.09c-1.51-8.66-4.52-15.36-9.04-20.11-4.52-4.75-10.16-7.13-16.94-7.13s-11.97,1.62-14.75,4.87c-2.77,3.25-3.6,7.55-2.47,12.92Z"/>
        <path class="cls-6" d="M771.06,399.83c3.2,0,5.88,1.13,8.05,3.39,2.17,2.26,3.34,4.99,3.53,8.19l1.41,19.76h-4.09c-1.51-8.66-4.66-15.29-9.45-19.9-4.8-4.61-11.48-7.01-20.04-7.2v94.57h-19.48v-94.57c-8.56.19-15.24,2.59-20.04,7.2-4.8,4.61-7.96,11.25-9.46,19.9h-4.09l1.41-19.76c.19-3.2,1.36-5.93,3.53-8.19,2.16-2.26,4.84-3.39,8.05-3.39h60.69Z"/>
        <path class="cls-6" d="M794.63,399.83h19.62v94.57h11.43c8.75,0,15.41-2.31,19.97-6.92,4.56-4.61,7.6-11.34,9.1-20.18h4.09v19.76c0,3.2-1.13,5.93-3.39,8.19-2.26,2.26-4.99,3.39-8.19,3.39h-52.65v-98.8Z"/>
        <path class="cls-6" d="M933.66,467.3v19.76c0,3.2-1.13,5.93-3.39,8.19-2.26,2.26-4.99,3.39-8.18,3.39h-51.94v-98.8h51.94c3.2,0,5.93,1.13,8.18,3.39,2.26,2.26,3.39,4.99,3.39,8.19v19.76h-4.09c-1.41-8.84-4.42-15.57-9.03-20.18-4.61-4.61-11.34-6.92-20.18-6.92h-10.59v43.33h25.27v4.23h-25.27v42.77h10.73c8.75,0,15.41-2.31,19.97-6.92,4.56-4.61,7.6-11.34,9.1-20.18h4.09Z"/>
      </g>
    </g>
  </g>
</svg>